<svg width="52" height="52" viewBox="0 0 52 52" fill="none" xmlns="http://www.w3.org/2000/svg">
<path d="M8.63837 0.228806C10.9415 0.200383 13.2489 0.22876 15.5525 0.228807L38.2668 0.2283C39.8436 0.22803 41.4337 0.181413 43.0083 0.239409C44.3152 0.287547 44.0676 1.56662 44.0673 2.49648L44.0678 49.6703C44.0718 50.3269 44.2335 51.2134 43.3395 51.3322C42.8267 51.3562 42.3037 51.3335 41.7896 51.3329L15.9158 51.3322C14.9144 51.3322 8.84526 51.4823 8.38454 51.2215C7.82095 50.9026 7.94185 50.3377 7.94293 49.7927L7.94151 2.05106C7.93864 1.38654 7.75251 0.414405 8.63837 0.228806Z" fill="#352036"/>
<path d="M42.3209 47.4554V49.6224C41.4769 49.6235 40.6297 49.6411 39.7861 49.6224V47.4554C40.3757 47.5268 41.7098 47.4764 42.3209 47.4554Z" fill="white"/>
<path d="M9.62061 1.92517H12.1312C12.1308 2.35559 12.0702 5.00141 12.2076 5.20826C12.1842 5.73141 12.2075 6.26228 12.2076 6.78647V49.6225H9.62061V1.92517Z" fill="white"/>
<path d="M13.8732 6.31372H15.9692L15.9682 23.2536C15.9676 23.4817 15.9132 23.986 15.9692 24.1778C15.9029 24.576 15.9229 24.9968 15.9225 25.3998L15.9218 27.0605C15.9214 28.7403 15.8661 30.4408 15.9692 32.1161C15.9158 32.5225 15.9681 33.1397 15.9691 33.5702L15.9689 42.146C15.9688 44.1546 15.6253 47.0521 18.4502 47.4125C18.9934 47.4818 19.5571 47.4567 20.104 47.4566L36.0548 47.4565C36.4344 47.4567 37.757 47.5062 38.0369 47.4348C38.0708 47.3424 38.0708 47.2561 38.0906 47.1619V49.6224H13.8732C13.8335 47.187 13.873 44.7437 13.873 42.3073V8.73324C13.8729 7.92724 13.8595 7.1195 13.8732 6.31372Z" fill="white"/>
<path d="M12.1309 1.92511L38.9864 1.92479C40.0962 1.92478 41.2115 1.90044 42.3207 1.92511V4.9665V47.4555C41.7096 47.4764 40.3755 47.5269 39.7859 47.4555V5.3796C39.6338 4.34237 38.7293 4.57365 37.9577 4.57478L18.1432 4.57516C16.5484 4.57483 14.9483 4.54577 13.3542 4.58031C12.8218 4.59184 12.4431 4.66346 12.2072 5.2082C12.0698 5.00135 12.1305 2.35554 12.1309 1.92511Z" fill="white"/>
<path d="M15.9693 6.31368L35.7407 6.31344C36.5177 6.31338 37.3165 6.27027 38.0907 6.31368V47.1619C38.0709 47.2561 38.0709 47.3423 38.037 47.4347C37.7571 47.5061 36.4345 47.4567 36.0549 47.4565L20.1041 47.4566C19.5572 47.4567 18.9935 47.4818 18.4503 47.4125C15.6254 47.0521 15.9689 44.1546 15.969 42.146L15.9692 33.5701C15.9682 33.1396 15.9159 32.5224 15.9693 32.1161C15.8662 30.4408 15.9215 28.7402 15.9219 27.0605L15.9226 25.3997C15.923 24.9967 15.903 24.576 15.9693 24.1777C15.9133 23.986 15.9677 23.4816 15.9683 23.2535L15.9693 6.31368Z" fill="white"/>
<path d="M15.9693 24.1778C16.4293 23.4901 17.4376 23.5518 17.5609 24.4237C17.6113 24.7799 17.5891 25.1608 17.5889 25.5204L17.5876 27.3117L20.2619 27.3105C20.7098 27.3104 21.2383 27.2567 21.6764 27.3469C22.3371 27.4828 22.5374 28.3391 22.0376 28.7916C21.6157 29.1737 20.7186 29.019 20.2009 29.019L17.5876 29.0175L17.5892 30.8434C17.5892 31.4921 17.7178 32.5598 16.7611 32.5701C16.4197 32.5737 16.1714 32.3653 15.9693 32.1161C15.8662 30.4408 15.9215 28.7403 15.9219 27.0605L15.9226 25.3998C15.923 24.9968 15.903 24.576 15.9693 24.1778Z" fill="#352036"/>
<path d="M30.2832 19.6451C29.4507 20.4263 30.4279 21.9819 29.4324 23.0652C28.098 24.5174 25.7143 23.5187 25.6657 21.6002C25.6485 20.9233 25.616 19.9832 25.7102 19.3212C26.4075 14.4176 33.1206 13.9141 34.3519 18.6315C34.6235 19.6721 34.5244 20.984 34.5244 22.068L34.524 26.0437C36.0997 26.2564 36.9069 27.3378 36.9371 28.8964C36.955 29.8159 37.0451 32.3941 36.8386 33.1334C36.5065 34.3222 35.3705 35.1057 34.155 35.1147L26.6327 35.1156C26.1871 35.1152 25.7146 35.1415 25.2766 35.0526C24.0046 34.7947 23.2408 33.5929 23.2329 32.3488L23.2312 29.969C23.2314 29.375 23.1719 28.7219 23.3061 28.1427C23.7134 26.3855 24.9646 26.1143 26.4666 26.1171L32.8493 26.1179L32.8501 21.9027C32.8525 20.0543 33.1074 17.6268 30.6941 17.0737C30.323 17.3101 29.8503 17.6417 29.6062 18.0154C30.026 17.9047 30.6504 17.8341 31.0338 18.0786C31.9282 18.6492 31.2912 19.4821 30.2832 19.6451Z" fill="#352036"/>
<path d="M29.6059 18.0154C29.539 18.0828 29.4147 18.1397 29.3334 18.1939C27.7044 19.2761 28.5689 21.5652 28.1255 21.9949C27.9512 22.1638 27.6269 22.1267 27.4754 21.9462C27.2627 21.6928 27.324 20.0671 27.3655 19.7012C27.5639 17.949 28.9608 16.8602 30.6937 17.0737C30.3227 17.3101 29.8499 17.6417 29.6059 18.0154Z" fill="#212637"/>
<path d="M26.5557 27.7781C27.2098 27.8111 27.8775 27.7774 28.5328 27.7775L33.8118 27.7755C35.6931 27.7601 35.2901 28.6417 35.2882 30.2865C35.2872 31.1605 35.6066 32.8258 34.7362 33.2706C34.3241 33.0518 34.3206 32.7928 34.3324 32.348V28.8153L29.3636 28.8165C28.5239 28.8166 27.6596 28.8587 26.8233 28.8073C26.4346 28.7835 26.2565 28.6759 26.186 28.2666C26.2687 28.0602 26.4019 27.9326 26.5557 27.7781Z" fill="#17283C"/>
<path d="M34.736 33.2707C34.2769 33.5537 33.1552 33.4303 32.6242 33.4303L27.1725 33.4308C26.4111 33.4342 25.1007 33.6883 24.9377 32.6336C24.8279 31.9235 24.8601 29.5806 24.9127 28.8066C24.9772 27.8589 25.7492 27.713 26.5556 27.7782C26.4017 27.9327 26.2686 28.0603 26.1859 28.2667C26.2564 28.676 26.4344 28.7836 26.8232 28.8074C27.6595 28.8588 28.5237 28.8167 29.3635 28.8166L34.3322 28.8154V32.3481C34.3204 32.7928 34.324 33.0519 34.736 33.2707Z" fill="#212637"/>
<path d="M29.9299 29.3035C31.2295 29.2383 31.3697 30.8784 30.2828 31.3023C29.099 31.3864 28.7686 29.6176 29.9299 29.3035Z" fill="#352036"/>
</svg>
