<svg width="40" height="34" viewBox="0 0 40 34" fill="none" xmlns="http://www.w3.org/2000/svg">
<path d="M29.9091 6.25909V7.25909H30.9091H38.8753L36.0086 31.5967C35.9054 32.2701 35.1667 32.9845 34.0364 32.9845H32.0182V21.5436C32.0182 17.4073 29.9622 14.8815 27.2424 12.6018L27.2397 12.5996C25.4687 11.1255 22.6869 9.84007 19.7255 9.06549L19.4531 7.25909H27.3273H28.3273V6.25909V1H29.9091V6.25909ZM1 32.4391V31.9091H26.3273V32.4391C26.3273 32.527 26.2872 32.6471 26.1458 32.7664C26.0028 32.8872 25.775 32.9845 25.4909 32.9845H1.83636C1.5523 32.9845 1.32451 32.8872 1.18143 32.7664C1.04005 32.6471 1 32.527 1 32.4391ZM1.07143 20.6209C1.38893 18.4502 2.74706 16.7528 4.78642 15.5226C7.15399 14.0944 10.3789 13.3482 13.6636 13.3482C16.9484 13.3482 20.1733 14.0944 22.5409 15.5226C24.5802 16.7528 25.9383 18.4502 26.2558 20.6209H1.07143ZM1.03636 25.7273H26.3091V26.8182H1.03636V25.7273Z" stroke="black" stroke-width="2"/>
</svg>
