<svg width="50" height="50" viewBox="0 0 50 50" fill="none" xmlns="http://www.w3.org/2000/svg">
<path d="M45.8332 18.0208C45.6483 15.3865 44.4698 12.9206 42.536 11.1222C40.6021 9.32369 38.0574 8.32687 35.4165 8.33334H14.5832C11.9119 8.32973 9.34123 9.35254 7.40258 11.1904C5.46393 13.0282 4.30543 15.5406 4.16653 18.2083C4.15478 18.3887 4.15478 18.5696 4.16653 18.75V34.375C4.161 35.3341 4.34583 36.2848 4.71031 37.1719C5.07479 38.0591 5.61168 38.8651 6.28988 39.5433C6.96808 40.2215 7.7741 40.7584 8.66127 41.1229C9.54843 41.4874 10.4991 41.6722 11.4582 41.6667C14.4374 41.6667 16.2915 39.4583 18.104 37.3125C18.7707 36.5417 19.4582 35.7292 20.1874 35.0208C21.1547 34.3122 22.2414 33.783 23.3957 33.4583C24.4615 33.3333 25.5382 33.3333 26.604 33.4583C27.7583 33.783 28.845 34.3122 29.8124 35.0208C30.5415 35.7292 31.229 36.5417 31.8957 37.3125C33.7082 39.3958 35.5624 41.6667 38.5415 41.6667C39.5006 41.6722 40.4513 41.4874 41.3385 41.1229C42.2256 40.7584 43.0316 40.2215 43.7098 39.5433C44.388 38.8651 44.9249 38.0591 45.2894 37.1719C45.6539 36.2848 45.8387 35.3341 45.8332 34.375V18.75C45.8444 18.5696 45.8444 18.3887 45.8332 18.2083V18.0208ZM41.6665 34.375C41.6665 35.2038 41.3373 35.9987 40.7512 36.5847C40.1652 37.1708 39.3703 37.5 38.5415 37.5C37.4999 37.5 36.4582 36.1667 35.0832 34.625C34.3749 33.8125 33.5832 32.8542 32.6874 32C31.1789 30.7847 29.4333 29.8978 27.5624 29.3958C25.8677 29.0902 24.132 29.0902 22.4374 29.3958C20.5664 29.8978 18.8208 30.7847 17.3124 32C16.4165 32.8542 15.6249 33.8125 14.9165 34.625C13.6249 36.1667 12.4999 37.5 11.4582 37.5C10.6294 37.5 9.83454 37.1708 9.24848 36.5847C8.66243 35.9987 8.33319 35.2038 8.33319 34.375V18.75C8.34336 18.6461 8.34336 18.5414 8.33319 18.4375C8.41343 16.8347 9.10717 15.3241 10.2707 14.2188C11.4342 13.1134 12.9783 12.498 14.5832 12.5H35.4165C36.9778 12.4932 38.4852 13.071 39.6419 14.1197C40.7985 15.1685 41.5208 16.6122 41.6665 18.1667V18.4167C41.6562 18.5275 41.6562 18.6391 41.6665 18.75V34.375Z" fill="black"/>
<path d="M33.3333 27.0834C34.4839 27.0834 35.4167 26.1506 35.4167 25C35.4167 23.8494 34.4839 22.9167 33.3333 22.9167C32.1827 22.9167 31.25 23.8494 31.25 25C31.25 26.1506 32.1827 27.0834 33.3333 27.0834Z" fill="black"/>
<path d="M37.4998 22.9167C38.6504 22.9167 39.5832 21.9839 39.5832 20.8333C39.5832 19.6827 38.6504 18.75 37.4998 18.75C36.3492 18.75 35.4165 19.6827 35.4165 20.8333C35.4165 21.9839 36.3492 22.9167 37.4998 22.9167Z" fill="black"/>
<path d="M33.3333 18.75C34.4839 18.75 35.4167 17.8172 35.4167 16.6666C35.4167 15.5161 34.4839 14.5833 33.3333 14.5833C32.1827 14.5833 31.25 15.5161 31.25 16.6666C31.25 17.8172 32.1827 18.75 33.3333 18.75Z" fill="black"/>
<path d="M29.1668 22.9167C30.3174 22.9167 31.2502 21.9839 31.2502 20.8333C31.2502 19.6827 30.3174 18.75 29.1668 18.75C28.0162 18.75 27.0835 19.6827 27.0835 20.8333C27.0835 21.9839 28.0162 22.9167 29.1668 22.9167Z" fill="black"/>
<path d="M16.6667 25C18.9679 25 20.8333 23.1345 20.8333 20.8334C20.8333 18.5322 18.9679 16.6667 16.6667 16.6667C14.3655 16.6667 12.5 18.5322 12.5 20.8334C12.5 23.1345 14.3655 25 16.6667 25Z" fill="black"/>
</svg>
