<svg width="30" height="36" viewBox="0 0 30 36" fill="none" xmlns="http://www.w3.org/2000/svg">
<path d="M29.9998 13.4775C30.0147 8.71625 27.2167 4.30349 22.6449 1.87665C18.073 -0.550016 12.4096 -0.628265 7.75628 1.67098C3.10305 3.97025 0.154763 8.30357 0.00590555 13.0628C-0.142904 17.822 2.52934 22.2965 7.03162 24.8258V29.1564C7.03162 30.9387 7.8218 32.648 9.22838 33.908C10.635 35.1683 12.5424 35.8762 14.5316 35.8762H15.4717C17.461 35.8762 19.3683 35.1682 20.775 33.908C22.1816 32.648 22.9717 30.9387 22.9717 29.1564V24.8258C27.333 22.3742 29.9862 18.0896 30 13.4766L29.9998 13.4775ZM19.6379 26.9173H10.3629V25.424H19.6364L19.6379 26.9173ZM15.4712 32.8905H14.5311C13.5709 32.8892 12.6408 32.5915 11.8968 32.0475C11.1532 31.5035 10.6412 30.7465 10.4478 29.9039H19.5546C19.3622 30.7475 18.8507 31.5056 18.1063 32.0498C17.3619 32.5938 16.4303 32.8911 15.4693 32.8905L15.4712 32.8905ZM20.9712 22.4373H9.02457C6.07848 20.864 4.05429 18.2087 3.49038 15.1778C2.92602 12.1468 3.87914 9.04691 6.09562 6.70199C8.31248 4.35733 11.5685 3.00508 14.9982 3.00508C18.4275 3.00508 21.6834 4.35742 23.9004 6.70199C26.1168 9.04691 27.07 12.1469 26.5056 15.1778C25.9416 18.2088 23.9174 20.8641 20.9714 22.4373H20.9712Z" fill="#0A0A0A"/>
</svg>
