<svg width="35" height="35" viewBox="0 0 35 35" fill="none" xmlns="http://www.w3.org/2000/svg">
<path d="M26.25 21.875V27.7083C26.25 30.1146 24.2813 32.0833 21.875 32.0833H13.125C10.7188 32.0833 8.75 30.1146 8.75 27.7083V20.3875L14.4229 20.4167C15.4875 20.4167 16.5375 20.6646 17.5 21.1458C18.4625 21.6271 19.5125 21.875 20.5917 21.875H26.25Z" stroke="#454545" stroke-width="2" stroke-linecap="round" stroke-linejoin="round"/>
<path d="M26.25 21.875V15.7937C26.25 15.1229 25.8708 14.2041 25.3896 13.7229L22.2979 10.6312C22.0354 10.3687 21.875 9.98954 21.875 9.61038V7.29163H13.125V9.61038C13.125 9.98954 12.9646 10.3687 12.7021 10.6312L9.61042 13.7229C9.12917 14.2041 8.75 15.1229 8.75 15.7937V20.3875M26.25 21.875H20.5917C19.5125 21.875 18.4625 21.627 17.5 21.1458C16.545 20.6667 15.4914 20.417 14.4229 20.4166L8.75 20.3875M26.25 21.875V23.3333M8.75 20.3875V21.8458M21.1458 7.29163H13.8542C12.6438 7.29163 11.6667 6.29996 11.6667 5.10413C11.6667 3.90829 12.6438 2.91663 13.8542 2.91663H21.1458C22.3563 2.91663 23.3333 3.90829 23.3333 5.10413C23.3333 6.29996 22.3563 7.29163 21.1458 7.29163Z" stroke="#454545" stroke-width="2" stroke-linecap="round" stroke-linejoin="round"/>
</svg>
