<svg width="115" height="77" viewBox="0 0 115 77" fill="none" xmlns="http://www.w3.org/2000/svg">
<g id="food">
<path id="Vector" d="M80.4055 17.9134C80.0542 18.1742 79.7842 18.5294 79.627 18.9377C77.5666 18.2027 75.3528 18.0053 73.1948 18.3641C72.8435 18.3866 72.4956 18.4461 72.1569 18.5416C69.1797 14.3491 66.5304 13.6116 64.2498 14.3491C64.8916 13.3112 65.7656 11.8499 66.6806 10.5935C67.7868 9.06399 68.9476 7.78027 69.767 7.78027C70.9212 7.91174 72.0415 8.25432 73.0719 8.79089C74.1172 9.27405 75.134 9.81665 76.1173 10.416C77.7698 11.4676 78.4389 13.8165 80.4055 17.9134Z" fill="#AF5B08"/>
<path id="Vector_2" d="M77.6741 5.77298C75.8113 6.16393 74.1664 7.24752 73.0718 8.80473C72.0414 8.26817 70.9212 7.92563 69.7669 7.79416C68.9475 7.79416 67.7867 9.07787 66.6806 10.6074C65.2256 8.62813 63.0727 7.27588 60.658 6.82456C59.9515 6.9767 59.2914 7.29503 58.7324 7.75319C58.2338 6.97008 57.6422 6.25015 56.9707 5.6091C59.8386 2.12669 65.7109 -0.618281 68.2101 0.829313C70.7092 2.27691 75.1203 3.65621 77.6741 5.77298Z" fill="#601200"/>
<path id="Vector_3" d="M111.092 57.586C115.107 57.8864 114.26 66.1487 114.26 66.1487C113.359 74.7523 87.0564 79.0814 55.537 75.8175C24.0176 72.5536 -0.864646 62.912 0.0230315 54.3084C0.0230315 54.3084 0.883379 46.1145 4.8711 46.5652C4.69356 47.4802 4.50237 48.3951 4.31117 49.2965C3.642 55.8516 26.9811 63.6358 56.4793 66.6949C85.9775 69.754 110.423 66.9134 111.106 60.3583C111.092 59.4433 111.078 58.5146 111.092 57.586Z" fill="#0B503E"/>
<path id="Vector_4" d="M111.092 57.5861C111.092 58.5147 111.092 59.4434 111.092 60.3174C110.409 66.8725 85.9501 69.7131 56.4656 66.654C26.981 63.595 3.6283 55.8108 4.29748 49.2556C4.48867 48.3406 4.67982 47.4256 4.85736 46.5243C7.30189 34.766 9.95126 23.1306 10.7433 19.6482C13.4747 24.7284 34.1507 30.5734 59.6749 33.2228C86.7968 36.0361 109.303 34.1788 110.832 29.1258C110.846 30.8602 111.106 44.1754 111.092 57.5861Z" fill="#2B8383"/>
<path id="Vector_5" d="M66.5578 28.4975C72.4711 28.9891 78.0566 29.2486 83.1096 29.2896C86.3598 29.2896 89.3779 29.2896 92.1093 29.1257C94.8932 29.0034 97.6691 28.739 100.426 28.3336C105.329 27.5552 108.251 26.3125 108.415 24.701C108.213 24.4936 108.066 24.2382 107.99 23.9586C107.913 23.6791 107.909 23.3847 107.978 23.1031C110.259 24.8512 110.805 28.9618 110.805 28.9618C110.811 29.0254 110.811 29.0894 110.805 29.153C109.276 34.2196 86.7696 36.0769 59.6476 33.25C34.1235 30.6006 13.4337 24.7556 10.7161 19.6754C10.8799 18.9789 10.9619 18.6102 10.9619 18.6102C11.5813 16.9426 12.5605 15.4319 13.8298 14.1854C13.8853 14.6666 14.0387 15.1314 14.2805 15.5511C14.9262 16.7741 15.9723 17.7383 17.2439 18.2824C19.6226 19.5308 22.1206 20.5373 24.7004 21.2868C26.8445 21.956 29.3163 22.6525 32.034 23.2944C36.4451 24.3459 41.498 25.3292 47.0562 26.1895C51.2898 26.8451 55.7964 27.4323 60.467 27.9239C62.5291 28.1561 64.564 28.3473 66.5578 28.4975Z" fill="#0B503E"/>
<path id="Vector_6" style="mix-blend-mode:screen" d="M66.5578 28.4975C72.4711 28.9891 78.0566 29.2486 83.1096 29.2896C86.3598 29.2896 89.3779 29.2896 92.1093 29.1257C94.8932 29.0034 97.6691 28.739 100.426 28.3336C105.329 27.5552 108.251 26.3125 108.415 24.701C108.213 24.4936 108.066 24.2382 107.99 23.9586C107.913 23.6791 107.909 23.3847 107.978 23.1031C110.259 24.8512 110.805 28.9618 110.805 28.9618C110.811 29.0254 110.811 29.0894 110.805 29.153C109.276 34.2196 86.7696 36.0769 59.6476 33.25C34.1235 30.6006 13.4337 24.7556 10.7161 19.6754C10.8799 18.9789 10.9619 18.6102 10.9619 18.6102C11.5813 16.9426 12.5605 15.4319 13.8298 14.1854C13.8853 14.6666 14.0387 15.1314 14.2805 15.5511C14.9262 16.7741 15.9723 17.7383 17.2439 18.2824C19.6226 19.5308 22.1206 20.5373 24.7004 21.2868C26.8445 21.956 29.3163 22.6525 32.034 23.2944C36.4451 24.3459 41.498 25.3292 47.0562 26.1895C51.2898 26.8451 55.7964 27.4323 60.467 27.9239C62.5291 28.1561 64.564 28.3473 66.5578 28.4975Z" fill="url(#paint0_linear_92_1082)"/>
<path id="Vector_7" style="mix-blend-mode:screen" d="M31.6792 23.8407C29.3985 23.3491 27.3228 22.8165 25.5064 22.2839C23.3439 21.696 21.2372 20.9191 19.2107 19.9623L18.4733 19.5389C17.4698 20.5407 16.5559 21.6282 15.7419 22.7892C18.6235 24.5509 24.0725 26.3535 31.1466 27.924C31.7065 26.6403 32.3211 25.3703 32.9766 24.1139L31.6792 23.8407Z" fill="url(#paint1_linear_92_1082)"/>
<path id="Vector_8" d="M107.978 23.1029C107.909 23.3844 107.913 23.6788 107.99 23.9584C108.066 24.2379 108.213 24.4934 108.415 24.7007C108.251 26.3122 105.329 27.5549 100.426 28.3333C104.195 24.2364 105.083 21.1637 104.933 19.1152C108.183 18.1729 108.593 19.2107 107.978 23.1029Z" fill="#802409"/>
<path id="Vector_9" d="M101.245 17.736C102.147 16.6025 102.952 15.6466 103.458 15.9743C103.915 16.3611 104.283 16.8419 104.538 17.384C104.792 17.926 104.927 18.5166 104.933 19.1154C105.083 21.1638 104.195 24.2366 100.426 28.3335C97.669 28.739 94.8931 29.0033 92.1091 29.1256C93.229 27.5141 94.7585 25.2608 96.2061 23.4308C96.961 22.3808 97.8314 21.4189 98.8008 20.563C99.7121 19.7085 100.531 18.761 101.245 17.736Z" fill="#601200"/>
<path id="Vector_10" d="M101.245 17.7363C100.527 18.762 99.7032 19.7095 98.7872 20.5632C97.8177 21.4191 96.9474 22.3811 96.1925 23.4311C95.1682 19.976 90.8527 14.7728 89.9514 13.7076C89.0501 12.6424 86.7694 15.4147 85.513 16.1248C84.6962 16.4579 83.844 16.6961 82.9729 16.835C83.609 14.4346 84.6882 12.1743 86.1549 10.1706C87.1104 8.82208 88.2094 7.5812 89.4325 6.46966C90.4567 5.56833 92.4779 7.12519 94.3078 8.14943C96.1378 9.17367 99.8661 14.9231 101.245 17.7363Z" fill="#B25B20"/>
<path id="Vector_11" d="M96.1785 23.4309C94.7446 25.2609 93.215 27.5279 92.0815 29.1257C89.3502 29.2622 86.3321 29.3305 83.0818 29.2895C83.0818 29.2895 81.443 22.5842 80.9924 20.5494C80.9055 20.1948 80.7367 19.8656 80.4995 19.5881C80.2623 19.3106 79.9634 19.0926 79.6267 18.9516C79.7839 18.5433 80.0538 18.1881 80.4051 17.9273C81.1691 17.3886 82.0401 17.0207 82.9589 16.8484C83.83 16.7096 84.6823 16.4713 85.4991 16.1383C86.7555 15.4282 89.0498 12.6422 89.9375 13.7211C90.8251 14.8 95.1543 20.0441 96.1785 23.4309Z" fill="#802409"/>
<path id="Vector_12" d="M81.02 20.5492C81.4706 22.584 83.1094 29.2893 83.1094 29.2893C78.0565 29.2893 72.4709 28.9889 66.5576 28.4973C66.4211 28.2924 66.0387 27.6369 65.4788 26.7765C67.0493 23.2668 68.5242 19.443 72.1568 18.5826C72.4956 18.487 72.8435 18.4275 73.1947 18.4051C75.3527 18.0462 77.5665 18.2437 79.627 18.9787C79.9656 19.1136 80.268 19.3258 80.5099 19.5986C80.7518 19.8713 80.9265 20.1968 81.02 20.5492Z" fill="#8E4D07"/>
<path id="Vector_13" d="M77.6743 5.77291C80.2827 5.24031 83.4783 6.11433 86.1414 10.1703C84.6747 12.1741 83.5955 14.4344 82.9594 16.8347C82.0406 17.0069 81.1696 17.3749 80.4056 17.9136C78.439 13.8166 77.7699 11.4677 76.1175 10.4298C75.1341 9.83044 74.1173 9.28784 73.072 8.80467C74.1666 7.24746 75.8115 6.16386 77.6743 5.77291Z" fill="#802409"/>
<path id="Vector_14" d="M64.1949 14.3629C66.4756 13.6255 69.125 14.363 72.1021 18.5555C68.4695 19.4432 66.9945 23.267 65.424 26.7494C64.0584 24.6873 61.7504 21.478 59.8385 20.5357C59.117 20.2223 58.322 20.1182 57.5442 20.2353V20.0441C59.2513 18.337 61.4636 15.2506 64.1949 14.3629Z" fill="#802409"/>
<path id="Vector_15" d="M54.9226 20.8907C55.258 20.7674 55.5999 20.6625 55.9468 20.5766C56.4865 20.4203 57.0398 20.3151 57.5993 20.2625C58.3771 20.1455 59.1721 20.2496 59.8936 20.563C61.8055 21.5053 64.1408 24.6599 65.4791 26.7767C66.039 27.637 66.4214 28.2926 66.558 28.4974C64.5641 28.3472 62.461 28.156 60.4671 27.9511C55.7966 27.4595 51.2899 26.8723 47.0564 26.2167C49.1774 23.7951 51.8865 21.9608 54.9226 20.8907Z" fill="#8E4D07"/>
<path id="Vector_16" d="M66.667 10.6072C65.752 11.8636 64.878 13.3385 64.2361 14.3628C61.5048 15.2505 59.2378 18.3369 57.5853 20.0986V20.2624C57.0259 20.315 56.4726 20.4202 55.9329 20.5765C56.6294 16.8756 54.062 14.7178 51.8359 13.3658C53.9574 11.2869 56.266 9.40801 58.7325 7.75302C59.3034 7.30564 59.9729 7.00129 60.6854 6.86536C63.0789 7.31595 65.2147 8.65202 66.667 10.6072Z" fill="#B25B20"/>
<path id="Vector_17" d="M58.7329 7.75321C56.2646 9.42119 53.956 11.3139 51.8363 13.407C51.2627 13.052 50.7028 12.7652 50.2112 12.5057C47.8213 11.2493 46.3873 8.92769 45.2129 9.13254C44.809 9.23688 44.4288 9.41766 44.093 9.66512C43.5194 8.68185 44.9944 7.125 46.9199 5.47255C47.7257 4.77607 48.6133 4.10693 49.4737 3.36947C51.6314 1.63509 54.8408 3.50602 56.9575 5.60913C57.6339 6.24938 58.23 6.96934 58.7329 7.75321Z" fill="#8E4D07"/>
<path id="Vector_18" d="M51.795 13.3662C54.0756 14.7318 56.6431 16.8759 55.8919 20.5768C55.545 20.6628 55.2031 20.7676 54.8677 20.8909C53.502 18.8971 53.6659 17.231 47.7663 17.2446C43.4176 17.1301 39.1131 18.1415 35.2705 20.1808C35.9741 19.4308 36.4992 18.5315 36.8066 17.5502C37.114 16.5688 37.1958 15.5307 37.0458 14.5133C39.2719 13.1477 42.249 10.6895 43.997 9.62427C44.3329 9.37681 44.713 9.19603 45.1169 9.09169C46.2914 8.88684 47.7253 11.2085 50.1152 12.4649C50.6615 12.7243 51.2214 13.0111 51.795 13.3662Z" fill="#601200"/>
<path id="Vector_19" d="M47.8075 17.3128C53.7071 17.3128 53.5569 18.9653 54.9089 20.9592C51.8729 22.0293 49.1637 23.8636 47.0427 26.2852C41.5801 25.4248 36.4726 24.4416 32.0205 23.39C33.2209 22.4811 34.3075 21.4311 35.2571 20.2627C39.1146 18.2094 43.4392 17.193 47.8075 17.3128Z" fill="#802409"/>
<path id="Vector_20" d="M36.7321 3.15111C37.9749 2.31806 39.0128 1.78547 39.4634 1.49868C40.8291 0.679289 43.9701 3.274 46.9336 5.43173C45.008 7.08417 43.5331 8.64103 44.1067 9.6243C42.3586 10.6895 39.3815 13.1204 37.1555 14.5134C37.0407 14.006 36.8521 13.5183 36.5956 13.0658C35.7352 11.5499 33.236 11.4679 30.9281 12.1781C29.3985 8.83222 33.6731 5.24056 36.7321 3.15111Z" fill="#802409"/>
<path id="Vector_21" d="M37.1004 14.5815C37.2504 15.5989 37.1686 16.637 36.8612 17.6183C36.5538 18.5997 36.0286 19.4989 35.325 20.249C34.3754 21.4174 33.2888 22.4674 32.0884 23.3763C29.3571 22.7208 26.8989 22.0107 24.7549 21.3688C23.3892 19.2657 23.3892 18.1185 23.8535 17.2718C24.3178 16.4251 26.0249 15.7286 27.1994 14.3903C27.493 14.0768 27.8127 13.789 28.1553 13.53C28.9867 12.9313 29.9089 12.4702 30.8866 12.1643C33.1946 11.4542 35.6938 11.5361 36.5542 13.052C36.8136 13.5308 36.9978 14.0467 37.1004 14.5815Z" fill="#8E4D07"/>
<path id="Vector_22" d="M30.5047 0.00998484C32.8784 0.314848 35.0761 1.42336 36.7322 3.15102C33.6731 5.24047 29.3986 8.83212 30.8735 12.178C29.8957 12.4839 28.9735 12.945 28.1422 13.5436C24.8919 11.3859 24.4002 7.99907 23.3896 6.71535C24.7826 5.14485 29.7126 -0.263146 30.5047 0.00998484Z" fill="#B25B20"/>
<path id="Vector_23" d="M14.2938 15.5783C14.052 15.1586 13.8987 14.6938 13.8432 14.2126C13.2286 10.2659 19.3058 7.12489 21.764 6.18258C22.0413 6.03628 22.3639 6.00145 22.666 6.08523C22.9681 6.169 23.2268 6.36503 23.3891 6.63323C24.3997 7.99889 24.8914 11.3584 28.1416 13.4615C27.799 13.7205 27.4792 14.0084 27.1857 14.3219C26.0112 15.6875 24.4544 16.1792 23.8398 17.2034C23.7442 17.4083 21.4635 18.9105 17.2846 18.2686C16.0131 17.7246 14.9669 16.7604 14.3212 15.5373L14.2938 15.5783Z" fill="#802409"/>
<path id="Vector_24" d="M23.8401 17.3129C23.3348 18.1323 23.4304 19.2794 24.7414 21.4098C22.1616 20.6603 19.6636 19.6538 17.2849 18.4054C21.4638 18.9516 23.7445 17.4494 23.8401 17.3129Z" fill="#420C00"/>
<g id="Clip path group">
<mask id="mask0_92_1082" style="mask-type:luminance" maskUnits="userSpaceOnUse" x="47" y="20" width="20" height="9">
<g id="clip-path-6">
<path id="Vector_25" d="M54.9226 20.8907C55.258 20.7674 55.5999 20.6625 55.9468 20.5766C56.4865 20.4203 57.0398 20.3151 57.5993 20.2625C58.3771 20.1455 59.1721 20.2496 59.8936 20.563C61.8055 21.5053 64.1408 24.6599 65.4791 26.7767C66.039 27.637 66.4214 28.2926 66.558 28.4974C64.5641 28.3472 62.461 28.156 60.4671 27.9511C55.7966 27.4595 51.2899 26.8723 47.0564 26.2167C49.1774 23.7951 51.8865 21.9608 54.9226 20.8907Z" fill="white"/>
</g>
</mask>
<g mask="url(#mask0_92_1082)">
<g id="Group">
<path id="Vector_26" style="mix-blend-mode:screen" d="M49.678 24.1408C49.0771 22.8571 51.1119 20.6584 54.1983 19.2381C57.2847 17.8178 60.2891 17.7085 60.89 18.9923C61.4909 20.276 59.4424 22.4747 56.3561 23.9086C53.2697 25.3425 50.2652 25.3699 49.678 24.1408Z" fill="url(#paint2_radial_92_1082)"/>
<path id="Vector_27" style="mix-blend-mode:screen" d="M55.7008 14.7179C58.0225 12.287 64.3591 14.5676 69.8491 19.8254C75.339 25.0832 77.9337 31.2969 75.6121 33.7141C73.2905 36.1314 66.9539 33.8643 61.4639 28.6202C55.974 23.3761 53.3792 17.1487 55.7008 14.7179Z" fill="url(#paint3_radial_92_1082)"/>
<path id="Vector_28" style="mix-blend-mode:multiply" d="M36.5405 25.643C36.7863 23.9906 45.308 23.8677 55.5914 25.3563C65.8748 26.8448 74.0278 29.4532 73.782 31.051C73.5361 32.6488 65.0145 32.84 54.7311 31.3378C44.4477 29.8356 36.3083 27.2955 36.5405 25.643Z" fill="url(#paint4_radial_92_1082)"/>
</g>
</g>
</g>
<g id="Clip path group_2">
<mask id="mask1_92_1082" style="mask-type:luminance" maskUnits="userSpaceOnUse" x="32" y="17" width="23" height="10">
<g id="clip-path-8">
<path id="Vector_29" d="M47.8075 17.3128C53.7071 17.3128 53.5569 18.9653 54.9089 20.9592C51.8729 22.0293 49.1637 23.8636 47.0427 26.2852C41.5801 25.4248 36.4726 24.4416 32.0205 23.39C33.2209 22.4811 34.3075 21.4311 35.2571 20.2627C39.1146 18.2094 43.4392 17.193 47.8075 17.3128Z" fill="white"/>
</g>
</mask>
<g mask="url(#mask1_92_1082)">
<g id="Group_2">
<path id="Vector_30" style="mix-blend-mode:screen" d="M34.574 20.3445C34.2599 18.9789 37.1005 17.1353 40.897 16.2476C44.6936 15.3599 48.0531 15.8106 48.3672 17.1899C48.6813 18.5692 45.8544 20.3992 42.0442 21.2868C38.234 22.1745 34.8881 21.7239 34.574 20.3445Z" fill="url(#paint5_radial_92_1082)"/>
<path id="Vector_31" style="mix-blend-mode:multiply" d="M37.4424 27.4866C36.8824 25.0421 41.8944 21.8191 48.6134 20.3032C55.3325 18.7874 61.2321 19.5248 61.7784 21.9693C62.3247 24.4139 57.34 27.6232 50.6209 29.1527C43.9019 30.6822 38.0023 29.9311 37.4424 27.4866Z" fill="url(#paint6_radial_92_1082)"/>
<path id="Vector_32" style="mix-blend-mode:multiply" d="M36.5813 22.1744C36.2126 20.0849 42.7132 17.217 51.0983 15.7558C59.4834 14.2945 66.5712 14.8135 66.9263 16.8893C67.2813 18.9651 60.7945 21.8466 52.4093 23.2942C44.0242 24.7418 36.9501 24.2502 36.5813 22.1744Z" fill="url(#paint7_radial_92_1082)"/>
<path id="Vector_33" style="mix-blend-mode:multiply" d="M14.3078 26.0119C13.6249 22.0925 21.1361 17.5039 31.0507 15.7832C40.9654 14.0625 49.5827 15.7832 50.2655 19.7436C50.9483 23.704 43.4372 28.2379 33.5226 29.9723C23.6079 31.7067 15.0316 29.9314 14.3078 26.0119Z" fill="url(#paint8_radial_92_1082)"/>
<path id="Vector_34" style="mix-blend-mode:screen" d="M45.895 18.0637C45.895 17.217 47.5065 16.4796 49.5413 16.4249C51.5761 16.3703 53.2559 16.9985 53.2696 17.7906C53.2832 18.5827 51.6717 19.3747 49.6232 19.443C47.5748 19.5113 45.9223 18.9104 45.895 18.0637Z" fill="url(#paint9_radial_92_1082)"/>
</g>
</g>
</g>
<g id="Clip path group_3">
<mask id="mask2_92_1082" style="mask-type:luminance" maskUnits="userSpaceOnUse" x="65" y="18" width="19" height="12">
<g id="clip-path-9">
<path id="Vector_35" d="M81.02 20.5492C81.4706 22.584 83.1094 29.2893 83.1094 29.2893C78.0565 29.2893 72.4709 28.9889 66.5576 28.4973C66.4211 28.2924 66.0387 27.6369 65.4788 26.7765C67.0493 23.2668 68.5242 19.443 72.1568 18.5826C72.4956 18.487 72.8435 18.4275 73.1947 18.4051C75.3527 18.0462 77.5665 18.2437 79.627 18.9787C79.9656 19.1136 80.268 19.3258 80.5099 19.5986C80.7518 19.8713 80.9265 20.1968 81.02 20.5492Z" fill="white"/>
</g>
</mask>
<g mask="url(#mask2_92_1082)">
<g id="Group_3">
<path id="Vector_36" style="mix-blend-mode:screen" d="M65.5613 22.3794C64.9604 21.0956 66.9952 18.8969 70.0816 17.4767C73.168 16.0564 76.1725 15.9335 76.7597 17.2309C77.3469 18.5282 75.3257 20.7133 72.2394 22.1336C69.153 23.5538 66.1348 23.6767 65.5613 22.3794Z" fill="url(#paint10_radial_92_1082)"/>
<path id="Vector_37" style="mix-blend-mode:screen" d="M75.4486 2.08548C79.1632 0.624226 86.251 9.82874 91.263 22.6522C96.2749 35.4757 97.3538 47.0428 93.6529 48.4904C89.9519 49.938 82.8505 40.7335 77.8385 27.9236C72.8266 15.1138 71.734 3.53307 75.4486 2.08548Z" fill="url(#paint11_radial_92_1082)"/>
<path id="Vector_38" style="mix-blend-mode:multiply" d="M57.6542 10.7987C61.3688 9.33742 68.4566 18.5556 73.4685 31.3654C78.4805 44.1753 79.5594 55.756 75.8584 57.2036C72.1575 58.6512 65.0561 49.4467 60.0305 36.6368C55.0048 23.827 53.9396 12.2463 57.6542 10.7987Z" fill="url(#paint12_radial_92_1082)"/>
<path id="Vector_39" style="mix-blend-mode:multiply" d="M50.0063 29.986C50.0063 27.2547 61.1501 25.0014 74.9023 24.9604C88.6545 24.9194 99.8392 27.0635 99.8529 29.7812C99.8665 32.4988 88.7091 34.7658 74.9433 34.8204C61.1774 34.8751 50.02 32.7037 50.0063 29.986Z" fill="url(#paint13_radial_92_1082)"/>
</g>
</g>
</g>
<g id="Clip path group_4">
<mask id="mask3_92_1082" style="mask-type:luminance" maskUnits="userSpaceOnUse" x="57" y="14" width="16" height="13">
<g id="clip-path-10">
<path id="Vector_40" d="M64.1949 14.3629C66.4756 13.6255 69.125 14.363 72.1021 18.5555C68.4695 19.4432 66.9945 23.267 65.424 26.7494C64.0584 24.6873 61.7504 21.478 59.8385 20.5357C59.117 20.2223 58.322 20.1182 57.5442 20.2353V20.0441C59.2513 18.337 61.4636 15.2506 64.1949 14.3629Z" fill="white"/>
</g>
</mask>
<g mask="url(#mask3_92_1082)">
<g id="Group_4">
<path id="Vector_41" style="mix-blend-mode:screen" d="M57.8041 20.044C56.8754 18.9651 58.2138 16.2884 60.7949 14.0624C63.3759 11.8364 66.2575 10.9078 67.1452 11.973C68.0328 13.0382 66.7355 15.7285 64.1544 17.9546C61.5733 20.1806 58.7327 21.1638 57.8041 20.044Z" fill="url(#paint14_radial_92_1082)"/>
<path id="Vector_42" style="mix-blend-mode:multiply" d="M58.1864 32.3351C55.8238 29.6038 57.9679 23.8817 62.9662 19.5662C67.9645 15.2507 73.8915 13.9534 76.3087 16.6847C78.7259 19.416 76.5408 25.1381 71.5289 29.4672C66.5169 33.7963 60.549 35.0664 58.1864 32.3351Z" fill="url(#paint15_radial_92_1082)"/>
<path id="Vector_43" style="mix-blend-mode:multiply" d="M52.4916 29.0027C51.126 27.3639 53.4339 22.9938 57.7767 19.2519C62.1195 15.51 66.7628 13.7893 68.183 15.4417C69.6033 17.0942 67.2407 21.4506 62.8979 25.1925C58.5551 28.9344 53.9119 30.6415 52.4916 29.0027Z" fill="url(#paint16_radial_92_1082)"/>
</g>
</g>
</g>
<g id="Clip path group_5">
<mask id="mask4_92_1082" style="mask-type:luminance" maskUnits="userSpaceOnUse" x="35" y="9" width="22" height="12">
<g id="clip-path-11">
<path id="Vector_44" d="M51.795 13.3662C54.0756 14.7318 56.6431 16.8759 55.8919 20.5768C55.545 20.6628 55.2031 20.7676 54.8677 20.8909C53.502 18.8971 53.6659 17.231 47.7663 17.2446C43.4176 17.1301 39.1131 18.1415 35.2705 20.1808C35.9741 19.4308 36.4992 18.5315 36.8066 17.5502C37.114 16.5688 37.1958 15.5307 37.0458 14.5133C39.2719 13.1477 42.249 10.6895 43.997 9.62427C44.3329 9.37681 44.713 9.19603 45.1169 9.09169C46.2914 8.88684 47.7253 11.2085 50.1152 12.4649C50.6615 12.7243 51.2214 13.0111 51.795 13.3662Z" fill="white"/>
</g>
</mask>
<g mask="url(#mask4_92_1082)">
<g id="Group_5">
<path id="Vector_45" style="mix-blend-mode:screen" d="M31.3377 19.4977C30.3408 17.9819 33.2906 14.2809 37.9338 11.2219C42.5771 8.16281 47.1247 6.90641 48.1217 8.40863C49.1186 9.91085 46.1687 13.6254 41.5255 16.6845C36.8823 19.7436 32.3346 21 31.3377 19.4977Z" fill="url(#paint17_radial_92_1082)"/>
<path id="Vector_46" style="mix-blend-mode:multiply" d="M28.3194 19.4158C28.0736 17.6268 33.6318 15.4281 40.7059 14.5131C47.78 13.5981 53.7206 14.2946 53.9528 16.07C54.1849 17.8453 48.6403 20.0577 41.5662 20.9863C34.4921 21.915 28.5515 21.2185 28.3194 19.4158Z" fill="url(#paint18_radial_92_1082)"/>
<path id="Vector_47" style="mix-blend-mode:multiply" d="M41.3886 18.5557C41.3886 16.753 45.39 15.3328 50.279 15.401C55.1681 15.4693 59.1148 16.9852 59.1012 18.7878C59.0875 20.5905 55.0861 22.0108 50.1971 21.9425C45.308 21.8743 41.3613 20.3584 41.3886 18.5557Z" fill="url(#paint19_radial_92_1082)"/>
<path id="Vector_48" style="mix-blend-mode:screen" d="M41.7578 11.8504C41.2115 11.031 42.0855 9.48776 43.697 8.42255C45.3085 7.35734 47.0702 7.16618 47.6164 7.98557C48.1627 8.80496 47.2887 10.3345 45.6635 11.3997C44.0384 12.4649 42.345 12.7244 41.7578 11.8504Z" fill="url(#paint20_radial_92_1082)"/>
</g>
</g>
</g>
<g id="Clip path group_6">
<mask id="mask5_92_1082" style="mask-type:luminance" maskUnits="userSpaceOnUse" x="23" y="11" width="15" height="13">
<g id="clip-path-12">
<path id="Vector_49" d="M37.1004 14.5815C37.2504 15.5989 37.1686 16.637 36.8612 17.6183C36.5538 18.5997 36.0286 19.4989 35.325 20.249C34.3754 21.4174 33.2888 22.4674 32.0884 23.3763C29.3571 22.7208 26.8989 22.0107 24.7549 21.3688C23.3892 19.2657 23.3892 18.1185 23.8535 17.2718C24.3178 16.4251 26.0249 15.7286 27.1994 14.3903C27.493 14.0768 27.8127 13.789 28.1553 13.53C28.9867 12.9313 29.9089 12.4702 30.8866 12.1643C33.1946 11.4542 35.6938 11.5361 36.5542 13.052C36.8136 13.5308 36.9978 14.0467 37.1004 14.5815Z" fill="white"/>
</g>
</mask>
<g mask="url(#mask5_92_1082)">
<g id="Group_6">
<path id="Vector_50" style="mix-blend-mode:screen" d="M19.5247 21.1369C18.5278 19.6347 21.4776 15.9338 26.1208 12.8747C30.7641 9.81564 35.3254 8.55924 36.3086 10.0615C37.2919 11.5637 34.3558 15.2783 29.7125 18.3373C25.0693 21.3964 20.4943 22.6528 19.5247 21.1369Z" fill="url(#paint21_radial_92_1082)"/>
</g>
</g>
</g>
<g id="Clip path group_7">
<mask id="mask6_92_1082" style="mask-type:luminance" maskUnits="userSpaceOnUse" x="13" y="6" width="16" height="13">
<g id="clip-path-13">
<path id="Vector_51" d="M14.2938 15.5783C14.052 15.1586 13.8987 14.6938 13.8432 14.2126C13.2286 10.2659 19.3058 7.12489 21.764 6.18258C22.0413 6.03628 22.3639 6.00145 22.666 6.08523C22.9681 6.169 23.2268 6.36503 23.3891 6.63323C24.3997 7.99889 24.8914 11.3584 28.1416 13.4615C27.799 13.7205 27.4792 14.0084 27.1857 14.3219C26.0112 15.6875 24.4544 16.1792 23.8398 17.2034C23.7442 17.4083 21.4635 18.9105 17.2846 18.2686C16.0131 17.7246 14.9669 16.7604 14.3212 15.5373L14.2938 15.5783Z" fill="white"/>
</g>
</mask>
<g mask="url(#mask6_92_1082)">
<g id="Group_7">
<path id="Vector_52" style="mix-blend-mode:screen" d="M12.9144 13.4751C12.1087 12.3006 14.5122 9.28251 18.2678 6.72873C22.0233 4.17496 25.7106 3.06877 26.4617 4.24323C27.2128 5.41769 24.8502 8.43579 21.0947 10.9896C17.3391 13.5433 13.6655 14.6495 12.9144 13.4751Z" fill="url(#paint22_radial_92_1082)"/>
<path id="Vector_53" style="mix-blend-mode:multiply" d="M15.7545 22.5974C14.5527 20.822 18.1717 16.2608 23.8529 12.4096C29.534 8.55847 35.1059 6.86505 36.3076 8.6404C37.5094 10.4158 33.8904 14.977 28.2093 18.8282C22.5282 22.6793 16.9563 24.3727 15.7545 22.5974Z" fill="url(#paint23_radial_92_1082)"/>
<path id="Vector_54" style="mix-blend-mode:multiply" d="M4.47454 12.1913C5.63534 9.80143 11.5896 10.2657 17.7624 13.2565C23.9352 16.2473 28.0048 20.5901 26.8577 22.9937C25.7105 25.3972 19.7562 24.9192 13.5698 21.9284C7.38339 18.9377 3.32738 14.5812 4.47454 12.1913Z" fill="url(#paint24_radial_92_1082)"/>
</g>
</g>
</g>
<g id="Clip path group_8">
<mask id="mask7_92_1082" style="mask-type:luminance" maskUnits="userSpaceOnUse" x="51" y="6" width="16" height="15">
<g id="clip-path-14">
<path id="Vector_55" d="M66.667 10.6072C65.752 11.8636 64.878 13.3385 64.2361 14.3628C61.5048 15.2505 59.2378 18.3369 57.5853 20.0986V20.2624C57.0259 20.315 56.4726 20.4202 55.9329 20.5765C56.6294 16.8756 54.062 14.7178 51.8359 13.3658C53.9574 11.2869 56.266 9.40801 58.7325 7.75302C59.3034 7.30564 59.9729 7.00129 60.6854 6.86536C63.0789 7.31595 65.2147 8.65202 66.667 10.6072Z" fill="white"/>
</g>
</mask>
<g mask="url(#mask7_92_1082)">
<g id="Group_8">
<path id="Vector_56" style="mix-blend-mode:screen" d="M45.9089 17.8999C44.912 16.384 48.7905 12.0822 54.5672 8.27207C60.344 4.46189 65.8339 2.59095 66.8581 4.09317C67.8824 5.59539 63.9902 9.91084 58.2135 13.721C52.4368 17.5312 46.9058 19.4021 45.9089 17.8999Z" fill="url(#paint25_radial_92_1082)"/>
<path id="Vector_57" style="mix-blend-mode:multiply" d="M41.7305 29.7402C39.6138 26.5445 45.5954 18.8149 55.073 12.6149C64.5507 6.41479 73.9738 3.88834 76.0769 7.08398C78.18 10.2796 72.2257 18.0092 62.7344 24.2093C53.243 30.4093 43.8473 32.9495 41.7305 29.7402Z" fill="url(#paint26_radial_92_1082)"/>
<path id="Vector_58" style="mix-blend-mode:multiply" d="M42.3448 3.02779C45.4994 0.41939 53.9119 5.43133 61.1362 14.1988C68.3606 22.9663 71.6655 32.1845 68.5244 34.7656C65.3834 37.3467 56.9573 32.3621 49.7466 23.5945C42.536 14.827 39.2038 5.62253 42.3448 3.02779Z" fill="url(#paint27_radial_92_1082)"/>
<path id="Vector_59" style="mix-blend-mode:multiply" d="M81.4985 -2.01123C84.298 0.952243 79.8733 9.67876 71.6111 17.4767C63.3488 25.2745 54.3628 29.194 51.5632 26.2305C48.7636 23.267 53.2703 14.5815 61.4642 6.72895C69.6582 -1.12356 78.6989 -4.98836 81.4985 -2.01123Z" fill="url(#paint28_radial_92_1082)"/>
</g>
</g>
</g>
<g id="Clip path group_9">
<mask id="mask8_92_1082" style="mask-type:luminance" maskUnits="userSpaceOnUse" x="64" y="7" width="17" height="12">
<g id="clip-path-15">
<path id="Vector_60" d="M80.4055 17.9134C80.0542 18.1742 79.7842 18.5294 79.627 18.9377C77.5666 18.2027 75.3528 18.0053 73.1948 18.3641C72.8435 18.3866 72.4956 18.4461 72.1569 18.5416C69.1797 14.3491 66.5304 13.6116 64.2498 14.3491C64.8916 13.3112 65.7656 11.8499 66.6806 10.5935C67.7868 9.06399 68.9476 7.78027 69.767 7.78027C70.9212 7.91174 72.0415 8.25432 73.0719 8.79089C74.1172 9.27405 75.134 9.81665 76.1173 10.416C77.7698 11.4676 78.4389 13.8165 80.4055 17.9134Z" fill="white"/>
</g>
</mask>
<g mask="url(#mask8_92_1082)">
<g id="Group_9">
<path id="Vector_61" style="mix-blend-mode:screen" d="M64.2907 11.7679C63.6899 10.4842 65.7247 8.2855 68.8247 6.86521C71.9248 5.44493 74.9019 5.32203 75.5028 6.61941C76.1037 7.91678 74.1371 10.1018 70.9688 11.5221C67.8005 12.9424 64.878 13.0653 64.2907 11.7679Z" fill="url(#paint29_radial_92_1082)"/>
<path id="Vector_62" style="mix-blend-mode:screen" d="M61.6821 16.5202C61.0949 15.2365 65.1782 12.0818 70.832 9.48704C76.4859 6.8923 81.5252 5.84077 82.126 7.12449C82.7269 8.4082 78.6163 11.5629 72.9761 14.1576C67.336 16.7523 62.283 17.8176 61.6821 16.5202Z" fill="url(#paint30_radial_92_1082)"/>
<path id="Vector_63" style="mix-blend-mode:multiply" d="M60.781 16.9162C61.1088 13.7889 67.8824 11.9452 75.8852 12.8192C83.8879 13.6933 90.129 16.9162 89.8012 20.0572C89.4735 23.1982 82.6862 25.0146 74.6698 24.1542C66.6533 23.2938 60.4396 20.0436 60.781 16.9162Z" fill="url(#paint31_radial_92_1082)"/>
<path id="Vector_64" style="mix-blend-mode:multiply" d="M57.244 11.1807C58.0498 9.13218 62.9388 9.14583 68.1693 11.1807C73.3998 13.2155 76.9915 16.5613 76.1857 18.6098C75.38 20.6583 70.4909 20.631 65.2605 18.6098C60.03 16.5887 56.4383 13.2155 57.244 11.1807Z" fill="url(#paint32_radial_92_1082)"/>
</g>
</g>
</g>
<g id="Clip path group_10">
<mask id="mask9_92_1082" style="mask-type:luminance" maskUnits="userSpaceOnUse" x="30" y="1" width="17" height="14">
<g id="clip-path-17">
<path id="Vector_65" d="M36.7321 3.15111C37.9749 2.31806 39.0128 1.78547 39.4634 1.49868C40.8291 0.679289 43.9701 3.274 46.9336 5.43173C45.008 7.08417 43.5331 8.64103 44.1067 9.6243C42.3586 10.6895 39.3815 13.1204 37.1555 14.5134C37.0407 14.006 36.8521 13.5183 36.5956 13.0658C35.7352 11.5499 33.236 11.4679 30.9281 12.1781C29.3985 8.83222 33.6731 5.24056 36.7321 3.15111Z" fill="white"/>
</g>
</mask>
<g mask="url(#mask9_92_1082)">
<g id="Group_10">
<path id="Vector_66" style="mix-blend-mode:screen" d="M28.7838 9.9387C27.7868 8.43648 30.7366 4.73553 35.3799 1.67647C40.0231 -1.3826 44.5707 -2.639 45.5677 -1.13678C46.5646 0.36544 43.6148 4.08005 38.9716 7.12546C34.3283 10.1709 29.7807 11.4546 28.7838 9.9387Z" fill="url(#paint33_radial_92_1082)"/>
<path id="Vector_67" style="mix-blend-mode:multiply" d="M31.597 19.266C30.2314 17.122 33.905 12.1919 39.8866 8.2452C45.8682 4.29845 51.877 2.78261 53.2837 4.95401C54.6903 7.1254 50.9894 12.0144 44.9941 15.9612C38.9989 19.9079 33.0037 21.4101 31.597 19.266Z" fill="url(#paint34_radial_92_1082)"/>
<path id="Vector_68" style="mix-blend-mode:multiply" d="M38.3435 16.4662C36.4042 14.8138 38.5893 9.03703 43.2325 3.57442C47.8757 -1.8882 53.2428 -4.97456 55.182 -3.32212C57.1212 -1.66968 54.9362 4.107 50.293 9.56962C45.6497 15.0322 40.2963 18.1323 38.3435 16.4662Z" fill="url(#paint35_radial_92_1082)"/>
<path id="Vector_69" style="mix-blend-mode:multiply" d="M20.6853 11.7411C20.8356 9.18734 26.7625 7.48026 33.9322 7.93093C41.1019 8.38159 46.7694 10.7988 46.6192 13.3935C46.4689 15.9883 40.5283 17.6544 33.3586 17.2174C26.1889 16.7804 20.4941 14.2949 20.6853 11.7411Z" fill="url(#paint36_radial_92_1082)"/>
</g>
</g>
</g>
<g id="Clip path group_11">
<mask id="mask10_92_1082" style="mask-type:luminance" maskUnits="userSpaceOnUse" x="23" y="0" width="14" height="14">
<g id="clip-path-18">
<path id="Vector_70" d="M30.5047 0.00998484C32.8784 0.314848 35.0761 1.42336 36.7322 3.15102C33.6731 5.24047 29.3986 8.83212 30.8735 12.178C29.8957 12.4839 28.9735 12.945 28.1422 13.5436C24.8919 11.3859 24.4002 7.99907 23.3896 6.71535C24.7826 5.14485 29.7126 -0.263146 30.5047 0.00998484Z" fill="white"/>
</g>
</mask>
<g mask="url(#mask10_92_1082)">
<g id="Group_11">
<path id="Vector_71" style="mix-blend-mode:screen" d="M21.2451 10.3615C20.016 8.99584 22.3103 4.8989 26.38 1.11603C30.4496 -2.66683 34.7378 -4.67437 35.9396 -3.34969C37.1413 -2.025 34.8743 2.11296 30.8047 5.89582C26.735 9.67869 22.4742 11.6862 21.2451 10.3615Z" fill="url(#paint37_radial_92_1082)"/>
<path id="Vector_72" style="mix-blend-mode:multiply" d="M25.9566 13.571C24.3861 11.8776 26.3936 7.42552 30.4633 3.64265C34.5329 -0.140211 39.0943 -1.81995 40.6784 -0.140196C42.2626 1.53956 40.2414 6.00524 36.1854 9.7881C32.1294 13.571 27.5681 15.2644 25.9566 13.571Z" fill="url(#paint38_radial_92_1082)"/>
<path id="Vector_73" style="mix-blend-mode:multiply" d="M22.9934 19.5798C21.4092 17.8864 23.4167 13.4343 27.4864 9.65148C31.5561 5.86861 36.131 4.18883 37.7152 5.86859C39.2993 7.54834 37.2782 12.0141 33.2085 15.7969C29.1389 19.5798 24.5912 21.2732 22.9934 19.5798Z" fill="url(#paint39_radial_92_1082)"/>
<path id="Vector_74" style="mix-blend-mode:multiply" d="M14.4306 1.36199C16.206 -0.604555 22.4471 2.18135 28.3604 7.56203C34.2736 12.9427 37.6605 18.897 35.8851 20.8362C34.1097 22.7754 27.8687 20.0168 21.9417 14.6362C16.0148 9.25547 12.6553 3.31487 14.4306 1.36199Z" fill="url(#paint40_radial_92_1082)"/>
</g>
</g>
</g>
<g id="Clip path group_12">
<mask id="mask11_92_1082" style="mask-type:luminance" maskUnits="userSpaceOnUse" x="56" y="0" width="22" height="11">
<g id="clip-path-19">
<path id="Vector_75" d="M77.6741 5.77298C75.8113 6.16393 74.1664 7.24752 73.0718 8.80473C72.0414 8.26817 70.9212 7.92563 69.7669 7.79416C68.9475 7.79416 67.7867 9.07787 66.6806 10.6074C65.2256 8.62813 63.0727 7.27588 60.658 6.82456C59.9515 6.9767 59.2914 7.29503 58.7324 7.75319C58.2338 6.97008 57.6422 6.25015 56.9707 5.6091C59.8386 2.12669 65.7109 -0.618281 68.2101 0.829313C70.7092 2.27691 75.1203 3.65621 77.6741 5.77298Z" fill="white"/>
</g>
</mask>
<g mask="url(#mask11_92_1082)">
<g id="Group_12">
<path id="Vector_76" style="mix-blend-mode:screen" d="M56.6425 5.86851C56.0416 4.5848 58.8002 2.0447 62.8016 0.214724C66.803 -1.61525 70.5176 -2.07959 71.1185 -0.782219C71.7194 0.515153 68.947 3.04163 64.9457 4.87161C60.9443 6.70159 57.2297 7.16588 56.6425 5.86851Z" fill="url(#paint41_radial_92_1082)"/>
<path id="Vector_77" style="mix-blend-mode:multiply" d="M57.9397 4.29822C58.6362 3.06913 62.3098 3.82025 66.1336 5.97799C69.9575 8.13572 72.4976 10.908 71.8011 12.1371C71.1046 13.3662 67.431 12.6151 63.6071 10.4573C59.7833 8.2996 57.2432 5.54096 57.9397 4.29822Z" fill="url(#paint42_radial_92_1082)"/>
<path id="Vector_78" style="mix-blend-mode:multiply" d="M62.4053 6.27848C62.815 4.59873 67.3489 4.24365 72.5384 5.50005C77.7279 6.75645 81.6064 9.10536 81.2104 10.7715C80.8143 12.4376 76.2667 12.8063 71.0772 11.5636C65.8877 10.3208 62.0092 7.94458 62.4053 6.27848Z" fill="url(#paint43_radial_92_1082)"/>
<path id="Vector_79" style="mix-blend-mode:multiply" d="M68.0727 10.3892C67.2533 8.87328 70.4216 5.5957 75.1195 3.08289C79.8173 0.570088 84.3104 -0.235617 85.1161 1.28026C85.9218 2.79614 82.7672 6.07368 78.0693 8.58648C73.3714 11.0993 68.8784 11.8504 68.0727 10.3892Z" fill="url(#paint44_radial_92_1082)"/>
</g>
</g>
</g>
<g id="Clip path group_13">
<mask id="mask12_92_1082" style="mask-type:luminance" maskUnits="userSpaceOnUse" x="73" y="5" width="14" height="13">
<g id="clip-path-20">
<path id="Vector_80" d="M77.6743 5.77291C80.2827 5.24031 83.4783 6.11433 86.1414 10.1703C84.6747 12.1741 83.5955 14.4344 82.9594 16.8347C82.0406 17.0069 81.1696 17.3749 80.4056 17.9136C78.439 13.8166 77.7699 11.4677 76.1175 10.4298C75.1341 9.83044 74.1173 9.28784 73.072 8.80467C74.1666 7.24746 75.8115 6.16386 77.6743 5.77291Z" fill="white"/>
</g>
</mask>
<g mask="url(#mask12_92_1082)">
<g id="Group_13">
<path id="Vector_81" style="mix-blend-mode:screen" d="M73.2634 7.4388C73.0585 6.07315 75.1889 4.55728 78.0295 4.16124C80.8701 3.7652 83.3419 4.55727 83.4921 5.95024C83.6424 7.34321 81.5529 8.83178 78.7123 9.24148C75.8718 9.65117 73.4546 8.84543 73.2634 7.4388Z" fill="url(#paint45_radial_92_1082)"/>
<path id="Vector_82" style="mix-blend-mode:multiply" d="M72.2936 17.886C71.9522 15.5098 75.5575 13.0243 80.3647 12.3278C85.1718 11.6313 89.337 13.0106 89.6785 15.3732C90.0199 17.7357 86.4009 20.2349 81.6074 20.9314C76.814 21.6279 72.635 20.2486 72.2936 17.886Z" fill="url(#paint46_radial_92_1082)"/>
<path id="Vector_83" style="mix-blend-mode:multiply" d="M80.2143 24.2501C77.9882 23.3761 77.9336 18.2003 80.105 12.6967C82.2764 7.19311 85.8408 3.43758 88.0668 4.3116C90.2928 5.18561 90.3611 10.3751 88.1897 15.8787C86.0183 21.3823 82.4539 25.1378 80.2143 24.2501Z" fill="url(#paint47_radial_92_1082)"/>
<path id="Vector_84" style="mix-blend-mode:multiply" d="M71.1055 3.39667C73.1267 2.03101 77.3739 5.02179 80.6651 9.96546C83.9563 14.9091 84.9123 19.9894 82.9048 21.314C80.8973 22.6387 76.6501 19.6889 73.3452 14.7316C70.0403 9.77426 69.1116 4.70769 71.1055 3.39667Z" fill="url(#paint48_radial_92_1082)"/>
</g>
</g>
</g>
<g id="Clip path group_14">
<mask id="mask13_92_1082" style="mask-type:luminance" maskUnits="userSpaceOnUse" x="79" y="13" width="18" height="17">
<g id="clip-path-21">
<path id="Vector_85" d="M96.1785 23.4309C94.7446 25.2609 93.215 27.5279 92.0815 29.1257C89.3502 29.2622 86.3321 29.3305 83.0818 29.2895C83.0818 29.2895 81.443 22.5842 80.9924 20.5494C80.9055 20.1948 80.7367 19.8656 80.4995 19.5881C80.2623 19.3106 79.9634 19.0926 79.6267 18.9516C79.7839 18.5433 80.0538 18.1881 80.4051 17.9273C81.1691 17.3886 82.0401 17.0207 82.9589 16.8484C83.83 16.7096 84.6823 16.4713 85.4991 16.1383C86.7555 15.4282 89.0498 12.6422 89.9375 13.7211C90.8251 14.8 95.1543 20.0441 96.1785 23.4309Z" fill="white"/>
</g>
</mask>
<g mask="url(#mask13_92_1082)">
<g id="Group_14">
<path id="Vector_86" style="mix-blend-mode:screen" d="M76.7042 20.9727C76.1033 19.689 78.3703 17.381 81.7435 15.8242C85.1167 14.2674 88.3533 14.0625 88.9405 15.3462C89.5277 16.6299 87.2881 18.9379 83.9012 20.4947C80.5144 22.0516 77.2915 22.2701 76.7042 20.9727Z" fill="url(#paint49_radial_92_1082)"/>
<path id="Vector_87" style="mix-blend-mode:screen" d="M86.1266 7.41175C88.3527 5.75931 94.7713 10.6347 100.48 18.337C106.188 26.0393 109.001 33.5777 106.775 35.2301C104.549 36.8826 98.1308 32.0072 92.4223 24.3049C86.7139 16.6026 83.9006 9.11882 86.1266 7.41175Z" fill="url(#paint50_radial_92_1082)"/>
<path id="Vector_88" style="mix-blend-mode:multiply" d="M78.5341 14.9911C80.883 14.2673 84.3382 18.6511 86.2364 24.7966C88.1347 30.942 87.7933 36.5275 85.458 37.2513C83.1227 37.9751 79.6676 33.5914 77.7557 27.4323C75.8438 21.2732 76.1988 15.7149 78.5341 14.9911Z" fill="url(#paint51_radial_92_1082)"/>
<path id="Vector_89" style="mix-blend-mode:multiply" d="M68.988 29.2077C68.988 26.7632 77.182 24.7421 87.3561 24.7148C97.5303 24.6874 105.738 26.6403 105.752 29.0985C105.765 31.5567 97.5576 33.5642 87.3834 33.5915C77.2093 33.6188 68.988 31.6659 68.988 29.2077Z" fill="url(#paint52_radial_92_1082)"/>
<path id="Vector_90" style="mix-blend-mode:multiply" d="M83.7644 40.7067C81.7705 39.2728 84.9525 31.4203 90.8522 23.1717C96.7518 14.9232 103.143 9.37858 105.164 10.8125C107.185 12.2465 103.99 20.0853 98.0765 28.3475C92.1632 36.6097 85.7583 42.1407 83.7644 40.7067Z" fill="url(#paint53_radial_92_1082)"/>
<path id="Vector_91" style="mix-blend-mode:screen" d="M86.0452 17.1491C85.5262 16.6165 86.2364 15.046 87.6703 13.6803C89.1042 12.3147 90.6611 11.6182 91.1937 12.1508C91.7263 12.6834 90.9888 14.2539 89.5685 15.6332C88.1483 17.0125 86.5505 17.6954 86.0452 17.1491Z" fill="url(#paint54_radial_92_1082)"/>
</g>
</g>
</g>
<g id="Clip path group_15">
<mask id="mask14_92_1082" style="mask-type:luminance" maskUnits="userSpaceOnUse" x="82" y="6" width="20" height="18">
<g id="clip-path-22">
<path id="Vector_92" d="M101.245 17.7363C100.527 18.762 99.7032 19.7095 98.7872 20.5632C97.8177 21.4191 96.9474 22.3811 96.1925 23.4311C95.1682 19.976 90.8527 14.7728 89.9514 13.7076C89.0501 12.6424 86.7694 15.4147 85.513 16.1248C84.6962 16.4579 83.844 16.6961 82.9729 16.835C83.609 14.4346 84.6882 12.1743 86.1549 10.1706C87.1104 8.82208 88.2094 7.5812 89.4325 6.46966C90.4567 5.56833 92.4779 7.12519 94.3078 8.14943C96.1378 9.17367 99.8661 14.9231 101.245 17.7363Z" fill="white"/>
</g>
</mask>
<g mask="url(#mask14_92_1082)">
<g id="Group_15">
<path id="Vector_93" style="mix-blend-mode:screen" d="M80.5831 20.6859C79.3814 19.9484 81.0338 15.0594 84.2977 9.76063C87.5617 4.46189 91.126 0.788274 92.3961 1.5667C93.6661 2.34512 91.9318 7.20685 88.6815 12.4919C85.4312 17.777 81.8532 21.4097 80.5831 20.6859Z" fill="url(#paint55_radial_92_1082)"/>
<path id="Vector_94" style="mix-blend-mode:multiply" d="M83.9566 7.34335C86.6879 5.48606 92.4919 9.24161 96.8757 15.7421C101.259 22.2426 102.611 29.0026 99.8801 30.8599C97.1488 32.7172 91.3448 28.9616 86.9473 22.4611C82.5499 15.9606 81.2116 9.20064 83.9566 7.34335Z" fill="url(#paint56_radial_92_1082)"/>
<path id="Vector_95" style="mix-blend-mode:multiply" d="M89.3914 31.9116C86.9196 29.6992 89.1592 23.1714 94.3897 17.3264C99.6201 11.4814 105.861 8.53159 108.319 10.744C110.778 12.9563 108.565 19.4841 103.321 25.3155C98.077 31.1468 91.8632 34.1103 89.3914 31.9116Z" fill="url(#paint57_radial_92_1082)"/>
</g>
</g>
</g>
<g id="Clip path group_16">
<mask id="mask15_92_1082" style="mask-type:luminance" maskUnits="userSpaceOnUse" x="92" y="15" width="13" height="15">
<g id="clip-path-23">
<path id="Vector_96" d="M101.245 17.736C102.147 16.6025 102.952 15.6466 103.458 15.9743C103.915 16.3611 104.283 16.8419 104.538 17.384C104.792 17.926 104.927 18.5166 104.933 19.1154C105.083 21.1638 104.195 24.2366 100.426 28.3335C97.669 28.739 94.8931 29.0033 92.1091 29.1256C93.229 27.5141 94.7585 25.2608 96.2061 23.4308C96.961 22.3808 97.8314 21.4189 98.8008 20.563C99.7121 19.7085 100.531 18.761 101.245 17.736Z" fill="white"/>
</g>
</mask>
<g mask="url(#mask15_92_1082)">
<g id="Group_16">
<path id="Vector_97" style="mix-blend-mode:screen" d="M91.9729 30.0815C91.0442 29.385 92.1368 26.4079 94.3901 23.4581C96.6434 20.5083 99.2382 18.6783 100.153 19.3611C101.068 20.044 99.9893 23.0347 97.736 25.9982C95.4826 28.9617 92.8742 30.7917 91.9729 30.0815Z" fill="url(#paint58_radial_92_1082)"/>
<path id="Vector_98" style="mix-blend-mode:multiply" d="M79.7636 32.5259C79.1354 29.6853 86.2642 25.6976 95.6872 23.6218C105.11 21.546 113.25 22.1742 113.878 24.9874C114.506 27.8007 107.377 31.8157 97.9542 33.8915C88.5312 35.9673 80.3782 35.3801 79.7636 32.5259Z" fill="url(#paint59_radial_92_1082)"/>
<path id="Vector_99" style="mix-blend-mode:screen" d="M98.4182 22.1741C97.7354 21.6415 98.5411 19.4428 100.221 17.2167C101.901 14.9907 103.84 13.6524 104.536 14.1714C105.233 14.6903 104.413 16.9026 102.72 19.1287C101.027 21.3547 99.1147 22.693 98.4182 22.1741Z" fill="url(#paint60_radial_92_1082)"/>
</g>
</g>
</g>
<g id="Clip path group_17">
<mask id="mask16_92_1082" style="mask-type:luminance" maskUnits="userSpaceOnUse" x="100" y="18" width="9" height="11">
<g id="clip-path-24">
<path id="Vector_100" d="M107.978 23.1029C107.909 23.3844 107.913 23.6788 107.99 23.9584C108.066 24.2379 108.213 24.4934 108.415 24.7007C108.251 26.3122 105.329 27.5549 100.426 28.3333C104.195 24.2364 105.083 21.1637 104.933 19.1152C108.183 18.1729 108.593 19.2107 107.978 23.1029Z" fill="white"/>
</g>
</mask>
<g mask="url(#mask16_92_1082)">
<g id="Group_17">
<path id="Vector_101" style="mix-blend-mode:multiply" d="M86.9472 31.2834C86.3189 28.4429 93.4613 24.4551 102.884 22.3793C112.307 20.3035 120.447 20.9317 121.075 23.745C121.703 26.5582 114.574 30.5733 105.151 32.6491C95.7283 34.7249 87.5754 34.124 86.9472 31.2834Z" fill="url(#paint61_radial_92_1082)"/>
</g>
</g>
</g>
</g>
<defs>
<linearGradient id="paint0_linear_92_1082" x1="61.0353" y1="21.65" x2="59.6915" y2="34.6089" gradientUnits="userSpaceOnUse">
<stop stop-color="#158F87"/>
<stop offset="0.29" stop-color="#0A4542"/>
<stop offset="0.41" stop-color="#062C2A"/>
<stop offset="0.66" stop-color="#020E0E"/>
<stop offset="1"/>
</linearGradient>
<linearGradient id="paint1_linear_92_1082" x1="7.46222" y1="4.65662" x2="25.3933" y2="40.1965" gradientUnits="userSpaceOnUse">
<stop stop-color="#B0FFFF"/>
<stop offset="1"/>
</linearGradient>
<radialGradient id="paint2_radial_92_1082" cx="0" cy="0" r="1" gradientUnits="userSpaceOnUse" gradientTransform="translate(49.8653 21.4638) rotate(155.171) scale(6.17008 2.58011)">
<stop stop-color="#A1907D"/>
<stop offset="0.18" stop-color="#62574C"/>
<stop offset="0.32" stop-color="#403932"/>
<stop offset="0.52" stop-color="#24201C"/>
<stop offset="0.75" stop-color="#0B0A09"/>
<stop offset="1"/>
</radialGradient>
<radialGradient id="paint3_radial_92_1082" cx="0" cy="0" r="1" gradientUnits="userSpaceOnUse" gradientTransform="translate(52.7568 19.6427) rotate(-136.348) scale(13.7607 6.07133)">
<stop stop-color="#A1907D"/>
<stop offset="0.18" stop-color="#62574C"/>
<stop offset="0.32" stop-color="#403932"/>
<stop offset="0.52" stop-color="#24201C"/>
<stop offset="0.75" stop-color="#0B0A09"/>
<stop offset="1"/>
</radialGradient>
<radialGradient id="paint4_radial_92_1082" cx="0" cy="0" r="1" gradientUnits="userSpaceOnUse" gradientTransform="translate(68.9392 38.4404) rotate(-171.771) scale(18.7903 3.01036)">
<stop stop-color="#8C2020"/>
<stop offset="0.24" stop-color="#BB7B7B"/>
<stop offset="0.48" stop-color="#D3A9A9"/>
<stop offset="0.76" stop-color="#F1E3E3"/>
<stop offset="1" stop-color="white"/>
</radialGradient>
<radialGradient id="paint5_radial_92_1082" cx="0" cy="0" r="1" gradientUnits="userSpaceOnUse" gradientTransform="translate(31.4366 17.9262) rotate(167.361) scale(7.06644 2.5746)">
<stop stop-color="#A1907D"/>
<stop offset="0.18" stop-color="#62574C"/>
<stop offset="0.32" stop-color="#403932"/>
<stop offset="0.52" stop-color="#24201C"/>
<stop offset="0.75" stop-color="#0B0A09"/>
<stop offset="1"/>
</radialGradient>
<radialGradient id="paint6_radial_92_1082" cx="0" cy="0" r="1" gradientUnits="userSpaceOnUse" gradientTransform="translate(39.6061 23.8717) rotate(167.361) scale(12.4471 4.535)">
<stop stop-color="#8C2020"/>
<stop offset="0.24" stop-color="#BB7B7B"/>
<stop offset="0.48" stop-color="#D3A9A9"/>
<stop offset="0.76" stop-color="#F1E3E3"/>
<stop offset="1" stop-color="white"/>
</radialGradient>
<radialGradient id="paint7_radial_92_1082" cx="0" cy="0" r="1" gradientUnits="userSpaceOnUse" gradientTransform="translate(49.3859 26.2821) rotate(170.087) scale(15.3932 3.81206)">
<stop stop-color="#8C2020"/>
<stop offset="0.24" stop-color="#BB7B7B"/>
<stop offset="0.48" stop-color="#D3A9A9"/>
<stop offset="0.76" stop-color="#F1E3E3"/>
<stop offset="1" stop-color="white"/>
</radialGradient>
<radialGradient id="paint8_radial_92_1082" cx="0" cy="0" r="1" gradientUnits="userSpaceOnUse" gradientTransform="translate(25.134 28.5769) rotate(170.233) scale(18.2247 7.17629)">
<stop stop-color="#8C2020"/>
<stop offset="0.24" stop-color="#BB7B7B"/>
<stop offset="0.48" stop-color="#D3A9A9"/>
<stop offset="0.76" stop-color="#F1E3E3"/>
<stop offset="1" stop-color="white"/>
</radialGradient>
<radialGradient id="paint9_radial_92_1082" cx="0" cy="0" r="1" gradientUnits="userSpaceOnUse" gradientTransform="translate(41.6563 4.01474) rotate(178.452) scale(3.70009 1.55025)">
<stop stop-color="#A1907D"/>
<stop offset="0.18" stop-color="#62574C"/>
<stop offset="0.32" stop-color="#403932"/>
<stop offset="0.52" stop-color="#24201C"/>
<stop offset="0.75" stop-color="#0B0A09"/>
<stop offset="1"/>
</radialGradient>
<radialGradient id="paint10_radial_92_1082" cx="0" cy="0" r="1" gradientUnits="userSpaceOnUse" gradientTransform="translate(65.7391 19.7406) rotate(155.171) scale(6.17009 2.58011)">
<stop stop-color="#A1907D"/>
<stop offset="0.18" stop-color="#62574C"/>
<stop offset="0.32" stop-color="#403932"/>
<stop offset="0.52" stop-color="#24201C"/>
<stop offset="0.75" stop-color="#0B0A09"/>
<stop offset="1"/>
</radialGradient>
<radialGradient id="paint11_radial_92_1082" cx="0" cy="0" r="1" gradientUnits="userSpaceOnUse" gradientTransform="translate(70.4319 43.7592) rotate(-111.502) scale(24.9356 7.15893)">
<stop stop-color="#A1907D"/>
<stop offset="0.18" stop-color="#62574C"/>
<stop offset="0.32" stop-color="#403932"/>
<stop offset="0.52" stop-color="#24201C"/>
<stop offset="0.75" stop-color="#0B0A09"/>
<stop offset="1"/>
</radialGradient>
<radialGradient id="paint12_radial_92_1082" cx="0" cy="0" r="1" gradientUnits="userSpaceOnUse" gradientTransform="translate(52.7326 52.3042) rotate(-111.502) scale(24.9356 7.15893)">
<stop stop-color="#8C2020"/>
<stop offset="0.24" stop-color="#BB7B7B"/>
<stop offset="0.48" stop-color="#D3A9A9"/>
<stop offset="0.76" stop-color="#F1E3E3"/>
<stop offset="1" stop-color="white"/>
</radialGradient>
<radialGradient id="paint13_radial_92_1082" cx="0" cy="0" r="1" gradientUnits="userSpaceOnUse" gradientTransform="translate(77.2194 33.0747) rotate(179.731) scale(24.9582 4.92122)">
<stop stop-color="#8C2020"/>
<stop offset="0.24" stop-color="#BB7B7B"/>
<stop offset="0.48" stop-color="#D3A9A9"/>
<stop offset="0.76" stop-color="#F1E3E3"/>
<stop offset="1" stop-color="white"/>
</radialGradient>
<radialGradient id="paint14_radial_92_1082" cx="0" cy="0" r="1" gradientUnits="userSpaceOnUse" gradientTransform="translate(68.2901 7.75925) rotate(139.105) scale(6.1917 2.579)">
<stop stop-color="#A1907D"/>
<stop offset="0.18" stop-color="#62574C"/>
<stop offset="0.32" stop-color="#403932"/>
<stop offset="0.52" stop-color="#24201C"/>
<stop offset="0.75" stop-color="#0B0A09"/>
<stop offset="1"/>
</radialGradient>
<radialGradient id="paint15_radial_92_1082" cx="0" cy="0" r="1" gradientUnits="userSpaceOnUse" gradientTransform="translate(62.2305 32.3395) rotate(139.105) scale(11.9989 6.54413)">
<stop stop-color="#8C2020"/>
<stop offset="0.24" stop-color="#BB7B7B"/>
<stop offset="0.48" stop-color="#D3A9A9"/>
<stop offset="0.76" stop-color="#F1E3E3"/>
<stop offset="1" stop-color="white"/>
</radialGradient>
<radialGradient id="paint16_radial_92_1082" cx="0" cy="0" r="1" gradientUnits="userSpaceOnUse" gradientTransform="translate(64.419 13.6856) rotate(139.257) scale(10.3828 3.93207)">
<stop stop-color="#8C2020"/>
<stop offset="0.24" stop-color="#BB7B7B"/>
<stop offset="0.48" stop-color="#D3A9A9"/>
<stop offset="0.76" stop-color="#F1E3E3"/>
<stop offset="1" stop-color="white"/>
</radialGradient>
<radialGradient id="paint17_radial_92_1082" cx="0" cy="0" r="1" gradientUnits="userSpaceOnUse" gradientTransform="translate(44.3688 27.2612) rotate(146.508) scale(10.072 3.25687)">
<stop stop-color="#A1907D"/>
<stop offset="0.18" stop-color="#62574C"/>
<stop offset="0.32" stop-color="#403932"/>
<stop offset="0.52" stop-color="#24201C"/>
<stop offset="0.75" stop-color="#0B0A09"/>
<stop offset="1"/>
</radialGradient>
<radialGradient id="paint18_radial_92_1082" cx="0" cy="0" r="1" gradientUnits="userSpaceOnUse" gradientTransform="translate(46.446 7.38497) rotate(172.577) scale(12.9377 3.28621)">
<stop stop-color="#8C2020"/>
<stop offset="0.24" stop-color="#BB7B7B"/>
<stop offset="0.48" stop-color="#D3A9A9"/>
<stop offset="0.76" stop-color="#F1E3E3"/>
<stop offset="1" stop-color="white"/>
</radialGradient>
<radialGradient id="paint19_radial_92_1082" cx="0" cy="0" r="1" gradientUnits="userSpaceOnUse" gradientTransform="translate(50.8235 27.2709) rotate(-179.189) scale(8.86018 3.25982)">
<stop stop-color="#8C2020"/>
<stop offset="0.24" stop-color="#BB7B7B"/>
<stop offset="0.48" stop-color="#D3A9A9"/>
<stop offset="0.76" stop-color="#F1E3E3"/>
<stop offset="1" stop-color="white"/>
</radialGradient>
<radialGradient id="paint20_radial_92_1082" cx="0" cy="0" r="1" gradientUnits="userSpaceOnUse" gradientTransform="translate(45.809 22.5236) rotate(146.618) scale(3.52327 1.77744)">
<stop stop-color="#A1907D"/>
<stop offset="0.18" stop-color="#62574C"/>
<stop offset="0.32" stop-color="#403932"/>
<stop offset="0.52" stop-color="#24201C"/>
<stop offset="0.75" stop-color="#0B0A09"/>
<stop offset="1"/>
</radialGradient>
<radialGradient id="paint21_radial_92_1082" cx="0" cy="0" r="1" gradientUnits="userSpaceOnUse" gradientTransform="translate(32.5798 28.949) rotate(146.508) scale(10.0719 3.25686)">
<stop stop-color="#A1907D"/>
<stop offset="0.18" stop-color="#62574C"/>
<stop offset="0.32" stop-color="#403932"/>
<stop offset="0.52" stop-color="#24201C"/>
<stop offset="0.75" stop-color="#0B0A09"/>
<stop offset="1"/>
</radialGradient>
<radialGradient id="paint22_radial_92_1082" cx="0" cy="0" r="1" gradientUnits="userSpaceOnUse" gradientTransform="translate(8.51207 9.40514) rotate(145.746) scale(8.24103 2.58483)">
<stop stop-color="#A1907D"/>
<stop offset="0.18" stop-color="#62574C"/>
<stop offset="0.32" stop-color="#403932"/>
<stop offset="0.52" stop-color="#24201C"/>
<stop offset="0.75" stop-color="#0B0A09"/>
<stop offset="1"/>
</radialGradient>
<radialGradient id="paint23_radial_92_1082" cx="0" cy="0" r="1" gradientUnits="userSpaceOnUse" gradientTransform="translate(14.9093 16.1571) rotate(145.746) scale(12.4423 3.90259)">
<stop stop-color="#8C2020"/>
<stop offset="0.24" stop-color="#BB7B7B"/>
<stop offset="0.48" stop-color="#D3A9A9"/>
<stop offset="0.76" stop-color="#F1E3E3"/>
<stop offset="1" stop-color="white"/>
</radialGradient>
<radialGradient id="paint24_radial_92_1082" cx="0" cy="0" r="1" gradientUnits="userSpaceOnUse" gradientTransform="translate(10.2276 9.86288) rotate(-154.086) scale(12.4159 4.82562)">
<stop stop-color="#8C2020"/>
<stop offset="0.24" stop-color="#BB7B7B"/>
<stop offset="0.48" stop-color="#D3A9A9"/>
<stop offset="0.76" stop-color="#F1E3E3"/>
<stop offset="1" stop-color="white"/>
</radialGradient>
<radialGradient id="paint25_radial_92_1082" cx="0" cy="0" r="1" gradientUnits="userSpaceOnUse" gradientTransform="translate(57.3928 20.3813) rotate(146.68) scale(12.5525 3.25685)">
<stop stop-color="#A1907D"/>
<stop offset="0.18" stop-color="#62574C"/>
<stop offset="0.32" stop-color="#403932"/>
<stop offset="0.52" stop-color="#24201C"/>
<stop offset="0.75" stop-color="#0B0A09"/>
<stop offset="1"/>
</radialGradient>
<radialGradient id="paint26_radial_92_1082" cx="0" cy="0" r="1" gradientUnits="userSpaceOnUse" gradientTransform="translate(51.0245 5.69442) rotate(146.68) scale(20.5926 6.97823)">
<stop stop-color="#8C2020"/>
<stop offset="0.24" stop-color="#BB7B7B"/>
<stop offset="0.48" stop-color="#D3A9A9"/>
<stop offset="0.76" stop-color="#F1E3E3"/>
<stop offset="1" stop-color="white"/>
</radialGradient>
<radialGradient id="paint27_radial_92_1082" cx="0" cy="0" r="1" gradientUnits="userSpaceOnUse" gradientTransform="translate(48.2196 1.65681) rotate(-129.464) scale(20.6016 7.39952)">
<stop stop-color="#8C2020"/>
<stop offset="0.24" stop-color="#BB7B7B"/>
<stop offset="0.48" stop-color="#D3A9A9"/>
<stop offset="0.76" stop-color="#F1E3E3"/>
<stop offset="1" stop-color="white"/>
</radialGradient>
<radialGradient id="paint28_radial_92_1082" cx="0" cy="0" r="1" gradientUnits="userSpaceOnUse" gradientTransform="translate(65.2575 -5.27733) rotate(-43.3788) scale(20.5622 7.37095)">
<stop stop-color="#8C2020"/>
<stop offset="0.24" stop-color="#BB7B7B"/>
<stop offset="0.48" stop-color="#D3A9A9"/>
<stop offset="0.76" stop-color="#F1E3E3"/>
<stop offset="1" stop-color="white"/>
</radialGradient>
<radialGradient id="paint29_radial_92_1082" cx="0" cy="0" r="1" gradientUnits="userSpaceOnUse" gradientTransform="translate(64.4322 9.12182) rotate(155.171) scale(6.17008 2.58011)">
<stop stop-color="#A1907D"/>
<stop offset="0.18" stop-color="#62574C"/>
<stop offset="0.32" stop-color="#403932"/>
<stop offset="0.52" stop-color="#24201C"/>
<stop offset="0.75" stop-color="#0B0A09"/>
<stop offset="1"/>
</radialGradient>
<radialGradient id="paint30_radial_92_1082" cx="0" cy="0" r="1" gradientUnits="userSpaceOnUse" gradientTransform="translate(63.4201 12.8624) rotate(155.24) scale(11.2749 2.58011)">
<stop stop-color="#A1907D"/>
<stop offset="0.18" stop-color="#62574C"/>
<stop offset="0.32" stop-color="#403932"/>
<stop offset="0.52" stop-color="#24201C"/>
<stop offset="0.75" stop-color="#0B0A09"/>
<stop offset="1"/>
</radialGradient>
<radialGradient id="paint31_radial_92_1082" cx="0" cy="0" r="1" gradientUnits="userSpaceOnUse" gradientTransform="translate(85.1934 6.73961) rotate(-173.768) scale(14.6291 5.71778)">
<stop stop-color="#8C2020"/>
<stop offset="0.24" stop-color="#BB7B7B"/>
<stop offset="0.48" stop-color="#D3A9A9"/>
<stop offset="0.76" stop-color="#F1E3E3"/>
<stop offset="1" stop-color="white"/>
</radialGradient>
<radialGradient id="paint32_radial_92_1082" cx="0" cy="0" r="1" gradientUnits="userSpaceOnUse" gradientTransform="translate(67.0768 16.0485) rotate(-158.503) scale(10.1605 3.97023)">
<stop stop-color="#8C2020"/>
<stop offset="0.24" stop-color="#BB7B7B"/>
<stop offset="0.48" stop-color="#D3A9A9"/>
<stop offset="0.76" stop-color="#F1E3E3"/>
<stop offset="1" stop-color="white"/>
</radialGradient>
<radialGradient id="paint33_radial_92_1082" cx="0" cy="0" r="1" gradientUnits="userSpaceOnUse" gradientTransform="translate(41.8263 17.7514) rotate(146.508) scale(10.0719 3.25687)">
<stop stop-color="#A1907D"/>
<stop offset="0.18" stop-color="#62574C"/>
<stop offset="0.32" stop-color="#403932"/>
<stop offset="0.52" stop-color="#24201C"/>
<stop offset="0.75" stop-color="#0B0A09"/>
<stop offset="1"/>
</radialGradient>
<radialGradient id="paint34_radial_92_1082" cx="0" cy="0" r="1" gradientUnits="userSpaceOnUse" gradientTransform="translate(44.2981 -3.35205) rotate(146.667) scale(13.0045 4.64779)">
<stop stop-color="#8C2020"/>
<stop offset="0.24" stop-color="#BB7B7B"/>
<stop offset="0.48" stop-color="#D3A9A9"/>
<stop offset="0.76" stop-color="#F1E3E3"/>
<stop offset="1" stop-color="white"/>
</radialGradient>
<radialGradient id="paint35_radial_92_1082" cx="0" cy="0" r="1" gradientUnits="userSpaceOnUse" gradientTransform="translate(60.5143 2.64892) rotate(130.442) scale(13.0133 4.62329)">
<stop stop-color="#8C2020"/>
<stop offset="0.24" stop-color="#BB7B7B"/>
<stop offset="0.48" stop-color="#D3A9A9"/>
<stop offset="0.76" stop-color="#F1E3E3"/>
<stop offset="1" stop-color="white"/>
</radialGradient>
<radialGradient id="paint36_radial_92_1082" cx="0" cy="0" r="1" gradientUnits="userSpaceOnUse" gradientTransform="translate(38.1621 4.51994) rotate(-176.504) scale(13.0206 4.64778)">
<stop stop-color="#8C2020"/>
<stop offset="0.24" stop-color="#BB7B7B"/>
<stop offset="0.48" stop-color="#D3A9A9"/>
<stop offset="0.76" stop-color="#F1E3E3"/>
<stop offset="1" stop-color="white"/>
</radialGradient>
<radialGradient id="paint37_radial_92_1082" cx="0" cy="0" r="1" gradientUnits="userSpaceOnUse" gradientTransform="translate(42.6067 11.1962) rotate(137.021) scale(10.053 3.25258)">
<stop stop-color="#A1907D"/>
<stop offset="0.18" stop-color="#62574C"/>
<stop offset="0.32" stop-color="#403932"/>
<stop offset="0.52" stop-color="#24201C"/>
<stop offset="0.75" stop-color="#0B0A09"/>
<stop offset="1"/>
</radialGradient>
<radialGradient id="paint38_radial_92_1082" cx="0" cy="0" r="1" gradientUnits="userSpaceOnUse" gradientTransform="translate(23.5036 -5.55803) rotate(137.021) scale(10.053 4.22814)">
<stop stop-color="#8C2020"/>
<stop offset="0.24" stop-color="#BB7B7B"/>
<stop offset="0.48" stop-color="#D3A9A9"/>
<stop offset="0.76" stop-color="#F1E3E3"/>
<stop offset="1" stop-color="white"/>
</radialGradient>
<radialGradient id="paint39_radial_92_1082" cx="0" cy="0" r="1" gradientUnits="userSpaceOnUse" gradientTransform="translate(20.5244 0.447757) rotate(137.021) scale(10.053 4.22814)">
<stop stop-color="#8C2020"/>
<stop offset="0.24" stop-color="#BB7B7B"/>
<stop offset="0.48" stop-color="#D3A9A9"/>
<stop offset="0.76" stop-color="#F1E3E3"/>
<stop offset="1" stop-color="white"/>
</radialGradient>
<radialGradient id="paint40_radial_92_1082" cx="0" cy="0" r="1" gradientUnits="userSpaceOnUse" gradientTransform="translate(23.1357 6.84003) rotate(-137.804) scale(14.4965 4.79282)">
<stop stop-color="#8C2020"/>
<stop offset="0.24" stop-color="#BB7B7B"/>
<stop offset="0.48" stop-color="#D3A9A9"/>
<stop offset="0.76" stop-color="#F1E3E3"/>
<stop offset="1" stop-color="white"/>
</radialGradient>
<radialGradient id="paint41_radial_92_1082" cx="0" cy="0" r="1" gradientUnits="userSpaceOnUse" gradientTransform="translate(59.1908 2.51393) rotate(155.183) scale(7.96508 2.58011)">
<stop stop-color="#A1907D"/>
<stop offset="0.18" stop-color="#62574C"/>
<stop offset="0.32" stop-color="#403932"/>
<stop offset="0.52" stop-color="#24201C"/>
<stop offset="0.75" stop-color="#0B0A09"/>
<stop offset="1"/>
</radialGradient>
<radialGradient id="paint42_radial_92_1082" cx="0" cy="0" r="1" gradientUnits="userSpaceOnUse" gradientTransform="translate(56.4208 -5.00925) rotate(-150.479) scale(7.97197 2.58138)">
<stop stop-color="#8C2020"/>
<stop offset="0.24" stop-color="#BB7B7B"/>
<stop offset="0.48" stop-color="#D3A9A9"/>
<stop offset="0.76" stop-color="#F1E3E3"/>
<stop offset="1" stop-color="white"/>
</radialGradient>
<radialGradient id="paint43_radial_92_1082" cx="0" cy="0" r="1" gradientUnits="userSpaceOnUse" gradientTransform="translate(58.9488 2.77557) rotate(-166.399) scale(9.69573 3.1215)">
<stop stop-color="#8C2020"/>
<stop offset="0.24" stop-color="#BB7B7B"/>
<stop offset="0.48" stop-color="#D3A9A9"/>
<stop offset="0.76" stop-color="#F1E3E3"/>
<stop offset="1" stop-color="white"/>
</radialGradient>
<radialGradient id="paint44_radial_92_1082" cx="0" cy="0" r="1" gradientUnits="userSpaceOnUse" gradientTransform="translate(79.5662 14.7472) rotate(151.822) scale(9.65634 3.10552)">
<stop stop-color="#8C2020"/>
<stop offset="0.24" stop-color="#BB7B7B"/>
<stop offset="0.48" stop-color="#D3A9A9"/>
<stop offset="0.76" stop-color="#F1E3E3"/>
<stop offset="1" stop-color="white"/>
</radialGradient>
<radialGradient id="paint45_radial_92_1082" cx="0" cy="0" r="1" gradientUnits="userSpaceOnUse" gradientTransform="translate(73.1702 6.58009) rotate(171.674) scale(5.1948 2.57673)">
<stop stop-color="#A1907D"/>
<stop offset="0.18" stop-color="#62574C"/>
<stop offset="0.32" stop-color="#403932"/>
<stop offset="0.52" stop-color="#24201C"/>
<stop offset="0.75" stop-color="#0B0A09"/>
<stop offset="1"/>
</radialGradient>
<radialGradient id="paint46_radial_92_1082" cx="0" cy="0" r="1" gradientUnits="userSpaceOnUse" gradientTransform="translate(75.8032 16.5177) rotate(171.674) scale(8.75988 4.34506)">
<stop stop-color="#8C2020"/>
<stop offset="0.24" stop-color="#BB7B7B"/>
<stop offset="0.48" stop-color="#D3A9A9"/>
<stop offset="0.76" stop-color="#F1E3E3"/>
<stop offset="1" stop-color="white"/>
</radialGradient>
<radialGradient id="paint47_radial_92_1082" cx="0" cy="0" r="1" gradientUnits="userSpaceOnUse" gradientTransform="translate(89.6834 -0.252143) rotate(111.661) scale(10.6909 4.33128)">
<stop stop-color="#8C2020"/>
<stop offset="0.24" stop-color="#BB7B7B"/>
<stop offset="0.48" stop-color="#D3A9A9"/>
<stop offset="0.76" stop-color="#F1E3E3"/>
<stop offset="1" stop-color="white"/>
</radialGradient>
<radialGradient id="paint48_radial_92_1082" cx="0" cy="0" r="1" gradientUnits="userSpaceOnUse" gradientTransform="translate(59.6173 4.0952) rotate(-123.166) scale(10.6912 4.31911)">
<stop stop-color="#8C2020"/>
<stop offset="0.24" stop-color="#BB7B7B"/>
<stop offset="0.48" stop-color="#D3A9A9"/>
<stop offset="0.76" stop-color="#F1E3E3"/>
<stop offset="1" stop-color="white"/>
</radialGradient>
<radialGradient id="paint49_radial_92_1082" cx="0" cy="0" r="1" gradientUnits="userSpaceOnUse" gradientTransform="translate(73.9848 13.7551) rotate(155.497) scale(6.75097 2.58005)">
<stop stop-color="#A1907D"/>
<stop offset="0.18" stop-color="#62574C"/>
<stop offset="0.32" stop-color="#403932"/>
<stop offset="0.52" stop-color="#24201C"/>
<stop offset="0.75" stop-color="#0B0A09"/>
<stop offset="1"/>
</radialGradient>
<radialGradient id="paint50_radial_92_1082" cx="0" cy="0" r="1" gradientUnits="userSpaceOnUse" gradientTransform="translate(79.8165 13.3687) rotate(-126.762) scale(17.3006 5.00588)">
<stop stop-color="#A1907D"/>
<stop offset="0.18" stop-color="#62574C"/>
<stop offset="0.32" stop-color="#403932"/>
<stop offset="0.52" stop-color="#24201C"/>
<stop offset="0.75" stop-color="#0B0A09"/>
<stop offset="1"/>
</radialGradient>
<radialGradient id="paint51_radial_92_1082" cx="0" cy="0" r="1" gradientUnits="userSpaceOnUse" gradientTransform="translate(89.0392 37.4635) rotate(-107.312) scale(11.6313 4.44781)">
<stop stop-color="#8C2020"/>
<stop offset="0.24" stop-color="#BB7B7B"/>
<stop offset="0.48" stop-color="#D3A9A9"/>
<stop offset="0.76" stop-color="#F1E3E3"/>
<stop offset="1" stop-color="white"/>
</radialGradient>
<radialGradient id="paint52_radial_92_1082" cx="0" cy="0" r="1" gradientUnits="userSpaceOnUse" gradientTransform="translate(91.3452 18.2074) rotate(179.775) scale(18.3873 4.47057)">
<stop stop-color="#8C2020"/>
<stop offset="0.24" stop-color="#BB7B7B"/>
<stop offset="0.48" stop-color="#D3A9A9"/>
<stop offset="0.76" stop-color="#F1E3E3"/>
<stop offset="1" stop-color="white"/>
</radialGradient>
<radialGradient id="paint53_radial_92_1082" cx="0" cy="0" r="1" gradientUnits="userSpaceOnUse" gradientTransform="translate(98.3352 20.8355) rotate(125.564) scale(18.3487 4.44259)">
<stop stop-color="#8C2020"/>
<stop offset="0.24" stop-color="#BB7B7B"/>
<stop offset="0.48" stop-color="#D3A9A9"/>
<stop offset="0.76" stop-color="#F1E3E3"/>
<stop offset="1" stop-color="white"/>
</radialGradient>
<radialGradient id="paint54_radial_92_1082" cx="0" cy="0" r="1" gradientUnits="userSpaceOnUse" gradientTransform="translate(85.2594 22.1002) rotate(135.751) scale(3.58273 1.36109)">
<stop stop-color="#A1907D"/>
<stop offset="0.18" stop-color="#62574C"/>
<stop offset="0.32" stop-color="#403932"/>
<stop offset="0.52" stop-color="#24201C"/>
<stop offset="0.75" stop-color="#0B0A09"/>
<stop offset="1"/>
</radialGradient>
<radialGradient id="paint55_radial_92_1082" cx="0" cy="0" r="1" gradientUnits="userSpaceOnUse" gradientTransform="translate(101.276 17.1861) rotate(121.621) scale(11.2382 2.55153)">
<stop stop-color="#A1907D"/>
<stop offset="0.18" stop-color="#62574C"/>
<stop offset="0.32" stop-color="#403932"/>
<stop offset="0.52" stop-color="#24201C"/>
<stop offset="0.75" stop-color="#0B0A09"/>
<stop offset="1"/>
</radialGradient>
<radialGradient id="paint56_radial_92_1082" cx="0" cy="0" r="1" gradientUnits="userSpaceOnUse" gradientTransform="translate(81.4534 14.4913) rotate(-124.103) scale(14.1967 5.9946)">
<stop stop-color="#8C2020"/>
<stop offset="0.24" stop-color="#BB7B7B"/>
<stop offset="0.48" stop-color="#D3A9A9"/>
<stop offset="0.76" stop-color="#F1E3E3"/>
<stop offset="1" stop-color="white"/>
</radialGradient>
<radialGradient id="paint57_radial_92_1082" cx="0" cy="0" r="1" gradientUnits="userSpaceOnUse" gradientTransform="translate(92.7277 20.4744) rotate(131.845) scale(14.2232 6.01059)">
<stop stop-color="#8C2020"/>
<stop offset="0.24" stop-color="#BB7B7B"/>
<stop offset="0.48" stop-color="#D3A9A9"/>
<stop offset="0.76" stop-color="#F1E3E3"/>
<stop offset="1" stop-color="white"/>
</radialGradient>
<radialGradient id="paint58_radial_92_1082" cx="0" cy="0" r="1" gradientUnits="userSpaceOnUse" gradientTransform="translate(97.1883 12.4441) rotate(127.439) scale(6.73673 2.11475)">
<stop stop-color="#A1907D"/>
<stop offset="0.18" stop-color="#62574C"/>
<stop offset="0.32" stop-color="#403932"/>
<stop offset="0.52" stop-color="#24201C"/>
<stop offset="0.75" stop-color="#0B0A09"/>
<stop offset="1"/>
</radialGradient>
<radialGradient id="paint59_radial_92_1082" cx="0" cy="0" r="1" gradientUnits="userSpaceOnUse" gradientTransform="translate(103.921 16.515) rotate(167.652) scale(17.5061 5.30638)">
<stop stop-color="#8C2020"/>
<stop offset="0.24" stop-color="#BB7B7B"/>
<stop offset="0.48" stop-color="#D3A9A9"/>
<stop offset="0.76" stop-color="#F1E3E3"/>
<stop offset="1" stop-color="white"/>
</radialGradient>
<radialGradient id="paint60_radial_92_1082" cx="0" cy="0" r="1" gradientUnits="userSpaceOnUse" gradientTransform="translate(102.592 5.90863) rotate(127.439) scale(5.01952 1.5757)">
<stop stop-color="#A1907D"/>
<stop offset="0.18" stop-color="#62574C"/>
<stop offset="0.32" stop-color="#403932"/>
<stop offset="0.52" stop-color="#24201C"/>
<stop offset="0.75" stop-color="#0B0A09"/>
<stop offset="1"/>
</radialGradient>
<radialGradient id="paint61_radial_92_1082" cx="0" cy="0" r="1" gradientUnits="userSpaceOnUse" gradientTransform="translate(111.127 15.2779) rotate(167.652) scale(17.5061 5.30638)">
<stop stop-color="#8C2020"/>
<stop offset="0.24" stop-color="#BB7B7B"/>
<stop offset="0.48" stop-color="#D3A9A9"/>
<stop offset="0.76" stop-color="#F1E3E3"/>
<stop offset="1" stop-color="white"/>
</radialGradient>
</defs>
</svg>
