<svg width="219" height="105" viewBox="0 0 219 105" fill="none" xmlns="http://www.w3.org/2000/svg">
<path d="M23.8468 54.9503C10.1007 57.4765 12.5509 57.7704 0 50.9468L1.25509 104.78H218.386V47.6735C206.554 30.8786 209.694 7.63368 191.402 1.36894C171.007 -5.61557 145.877 16.1881 124.882 20.4045C100.562 25.2886 97.5947 9.82436 73.4229 15.4693C52.2907 20.4044 45.3514 50.9983 23.8468 54.9503Z" fill="url(#paint0_linear_92_1307)"/>
<path d="M1.25513 73.0542C12.534 82.1871 22.2248 84.7456 35.9708 82.2194C57.4754 78.2674 54.3939 46.5607 74.4737 37.0982C97.2405 26.3696 113.273 46.9175 137.593 42.0334C158.588 37.817 167.694 11.7833 188.089 18.7678C206.382 25.0325 206.554 44.9789 218.386 61.7739" stroke="#478F96"/>
<defs>
<linearGradient id="paint0_linear_92_1307" x1="109.821" y1="19.6994" x2="109.821" y2="104.78" gradientUnits="userSpaceOnUse">
<stop stop-color="#FFFDD0"/>
<stop offset="1" stop-color="#DDF2F4" stop-opacity="0"/>
</linearGradient>
</defs>
</svg>
