<svg width="64" height="64" viewBox="0 0 64 64" fill="none" xmlns="http://www.w3.org/2000/svg">
<rect x="0.596191" y="0.596191" width="62.6291" height="62.6291" rx="17.277" fill="#BDE5F8"/>
<path d="M45.0797 21.7617C44.2672 21.7617 43.473 22.0056 42.7974 22.4625C42.1219 22.9194 41.5954 23.5688 41.2844 24.3285C40.9735 25.0883 40.8922 25.9243 41.0507 26.7309C41.2092 27.5375 41.6004 28.2783 42.1749 28.8598C42.7494 29.4413 43.4814 29.8373 44.2783 29.9978C45.0751 30.1582 45.9011 30.0759 46.6518 29.7612C47.4024 29.4465 48.044 28.9135 48.4954 28.2298C48.9468 27.546 49.1877 26.7421 49.1877 25.9197C49.1877 24.8169 48.7549 23.7593 47.9845 22.9796C47.2141 22.1998 46.1692 21.7617 45.0797 21.7617ZM45.0797 27.7017C44.7315 27.7017 44.3911 27.5972 44.1016 27.4014C43.8121 27.2056 43.5864 26.9273 43.4532 26.6016C43.3199 26.276 43.285 25.9177 43.353 25.5721C43.4209 25.2264 43.5886 24.9089 43.8348 24.6597C44.081 24.4104 44.3947 24.2407 44.7362 24.172C45.0778 24.1032 45.4317 24.1385 45.7534 24.2734C46.0751 24.4082 46.3501 24.6366 46.5436 24.9297C46.737 25.2227 46.8403 25.5673 46.8403 25.9197C46.8403 26.3923 46.6548 26.8456 46.3246 27.1798C45.9944 27.514 45.5466 27.7017 45.0797 27.7017ZM35.4677 38.1002C34.3513 36.4338 32.7558 34.7669 32.7558 32.7611V26.5137C32.7558 26.1986 32.6321 25.8965 32.412 25.6737C32.1919 25.4509 31.8933 25.3257 31.5821 25.3257C31.2708 25.3257 30.9722 25.4509 30.7521 25.6737C30.532 25.8965 30.4083 26.1986 30.4083 26.5137V32.7611C30.4083 34.7669 28.8128 36.4338 27.6964 38.1002C27.055 39.0575 26.7807 40.2186 26.9246 41.366C27.0686 42.5134 27.6211 43.5682 28.4785 44.3328C29.3359 45.0974 30.4394 45.5192 31.5821 45.5192C32.7247 45.5192 33.8282 45.0974 34.6856 44.3328C35.543 43.5682 36.0955 42.5134 36.2395 41.366C36.3835 40.2186 36.1091 39.0575 35.4677 38.1002ZM31.5821 43.1456C31.1178 43.1456 30.6639 43.0062 30.2779 42.7452C29.8919 42.4841 29.591 42.113 29.4133 41.6789C29.2357 41.2447 29.1892 40.767 29.2797 40.3061C29.3703 39.8452 29.5939 39.4218 29.9222 39.0895C30.2505 38.7572 30.6687 38.531 31.1241 38.4393C31.5795 38.3476 32.0514 38.3946 32.4804 38.5745C32.9093 38.7543 33.2759 39.0588 33.5339 39.4496C33.7918 39.8403 33.9295 40.2997 33.9295 40.7696C33.9295 41.3998 33.6822 42.0041 33.2419 42.4497C32.8017 42.8953 32.2046 43.1456 31.5821 43.1456ZM40.6085 38.1459C39.6027 34.5927 37.4506 31.1996 37.4506 27.5069V20.5737C37.4506 18.9984 36.8323 17.4875 35.7317 16.3736C34.6312 15.2596 33.1385 14.6338 31.5821 14.6338C30.0256 14.6338 28.5329 15.2596 27.4324 16.3736C26.3318 17.4875 25.7135 18.9984 25.7135 20.5737V27.5069C25.7135 31.1996 23.5614 34.5927 22.5556 38.1459C22.0198 40.0388 22.078 42.0534 22.7223 43.9113C23.3666 45.7692 24.5651 47.3787 26.1522 48.5173C27.7393 49.656 29.6367 50.2676 31.5821 50.2676C33.5274 50.2676 35.4248 49.656 37.0119 48.5173C38.599 47.3787 39.7975 45.7692 40.4418 43.9113C41.0861 42.0534 41.1444 40.0388 40.6085 38.1459ZM31.5821 47.8976C30.0826 47.8977 28.6222 47.4133 27.4135 46.5151C26.2048 45.6168 25.311 44.3515 24.8621 42.9033C24.4133 41.4552 24.4328 39.8998 24.9179 38.4637C25.403 37.0275 26.3283 35.7856 27.5592 34.9187C27.7149 34.8087 27.8419 34.662 27.9293 34.4913C28.0167 34.3206 28.0619 34.1309 28.0609 33.9387V20.5737C28.0609 19.6285 28.4319 18.722 29.0922 18.0536C29.7526 17.3853 30.6482 17.0098 31.5821 17.0098C32.5159 17.0098 33.4115 17.3853 34.0719 18.0536C34.7322 18.722 35.1032 19.6285 35.1032 20.5737V33.9387C35.1032 34.1299 35.1488 34.3184 35.2361 34.488C35.3235 34.6576 35.45 34.8033 35.6049 34.9128C36.8383 35.7788 37.7661 37.021 38.2528 38.4583C38.7396 39.8956 38.7599 41.4527 38.3107 42.9024C37.8615 44.3522 36.9665 45.6187 35.756 46.5173C34.5456 47.4159 33.0832 47.8995 31.5821 47.8976Z" fill="#131111"/>
</svg>
