<svg width="220" height="89" viewBox="0 0 220 89" fill="none" xmlns="http://www.w3.org/2000/svg">
<path d="M33.1329 37.8169C21.7263 42.1955 13.1642 46.9437 7.75852 50.3381C3.35111 53.1057 1 58.0295 1 63.2338V71.4977C1 81.0395 8.73518 88.7747 18.277 88.7747H201.723C211.265 88.7747 219 81.0395 219 71.4977V47.2383C219 35.8722 205.764 29.4255 194.428 28.6076C171.519 26.9549 184.723 -1.06677 147.898 0.0314458C95.5087 1.59385 103.87 40.3756 73.4566 42.7285C57.1204 43.9923 53.9249 29.8355 33.1329 37.8169Z" fill="url(#paint0_linear_92_1292)"/>
<path d="M1 73.7054C1 73.7054 26.447 57.0321 46.9942 55.0075C63.2945 53.4014 69.0915 64.3552 85.4277 63.0913C115.841 60.7384 93.0791 25.3124 142.763 21.8542C178.046 19.3984 167.919 47.4947 190.828 49.1475C202.102 49.9609 219 43.008 219 43.008" stroke="#131111" stroke-width="1.07981" stroke-linecap="round"/>
<defs>
<linearGradient id="paint0_linear_92_1292" x1="110" y1="-0.248012" x2="110" y2="88.7747" gradientUnits="userSpaceOnUse">
<stop stop-color="#BDE7F8"/>
<stop offset="1" stop-color="#FBEBD6" stop-opacity="0"/>
</linearGradient>
</defs>
</svg>
