<svg width="68" height="116" viewBox="0 0 68 116" fill="none" xmlns="http://www.w3.org/2000/svg">
<g clip-path="url(#clip0_91_1046)">
<path d="M64.9489 36.984C64.7362 37.9889 63.9917 38.6388 63.2473 39.3289C61.6254 40.8229 59.6977 41.9417 57.7368 42.94C44.0039 49.9277 27.1734 51.2543 13.1479 44.8829C10.735 43.7841 8.39526 42.4509 6.40777 40.6688C5.62341 39.9653 3.62928 38.344 3.42986 37.2319C3.18392 35.9254 5.92253 36.2269 6.81325 36.0125C6.91295 35.9857 7.01931 35.9656 7.11901 35.9388C8.67444 35.577 10.2697 35.3559 11.8584 35.2085C22.5403 34.1902 33.4349 36.2604 43.9839 34.2572C49.1022 33.2857 54.1673 31.3495 59.3521 31.8252C60.7546 31.9525 62.1837 32.2741 63.3137 33.1182C63.4002 33.1852 63.4799 33.2455 63.5597 33.3259C64.5567 34.2103 65.2148 35.6976 64.9423 36.9773L64.9489 36.984Z" fill="#3291D9"/>
<g style="mix-blend-mode:multiply" opacity="0.5">
<path d="M64.9489 36.9839C64.7362 37.9889 63.9917 38.6388 63.2473 39.3288C61.6254 40.8229 59.6977 41.9417 57.7368 42.94C44.0039 49.9277 27.1734 51.2543 13.1479 44.8829C10.735 43.7841 8.39526 42.4509 6.40777 40.6688C5.62341 39.9653 3.62928 38.344 3.42986 37.2318C3.18392 35.9254 5.92253 36.2269 6.81325 36.0125C6.91295 35.9857 7.01931 35.9656 7.11901 35.9388C7.61755 36.0259 8.11608 36.1063 8.58803 36.1599C11.0209 36.448 13.4471 36.7226 15.8733 36.9839C18.6052 37.2787 21.3372 37.5534 24.0758 37.7946C37.3235 38.9603 51.2426 39.2618 63.2406 33.48C63.347 33.4331 63.4533 33.3795 63.5663 33.3192C64.5634 34.2036 65.2215 35.6909 64.9489 36.9705V36.9839Z" fill="#3291D9"/>
</g>
<path d="M64.9887 36.6556L63.8786 52.4736L60.4886 100.664C60.3025 103.331 58.521 105.609 56.0018 106.446C37.1904 112.724 20.8053 109.173 12.2837 106.279C9.79103 105.428 8.05614 103.157 7.87666 100.517L3.83522 43.0404L3.4231 37.2385C4.92534 37.4127 6.43424 37.808 7.92319 37.9688C10.7283 38.2569 13.5533 38.3909 16.3517 38.6186C21.6295 39.0474 26.8874 39.7107 32.1719 39.9385C41.8833 40.3539 51.7277 39.8983 61.2264 37.6472C62.4894 37.3457 63.739 37.0174 64.982 36.6556H64.9887Z" fill="#68CEFF"/>
<g style="mix-blend-mode:multiply" opacity="0.5">
<path d="M63.8786 52.4736L60.4886 100.664C60.3025 103.331 58.521 105.609 56.0018 106.446C37.1904 112.724 20.8053 109.173 12.2837 106.279C9.79102 105.428 8.05612 103.157 7.87665 100.517L3.83521 43.0404C5.5701 49.854 6.9527 56.7614 7.96306 63.7223C8.78066 69.3434 9.37225 75.0113 10.828 80.4983C12.2903 85.9787 14.6899 91.3451 18.6583 95.3783C22.62 99.4115 28.3165 101.957 33.9001 101.214C38.2207 100.638 42.1292 98.1721 45.1404 94.9964C48.1515 91.8208 50.365 87.9685 52.3525 84.0625C57.4508 74.0599 61.3261 63.4275 63.8786 52.4803V52.4736Z" fill="#68CEFF"/>
</g>
<g style="mix-blend-mode:screen" opacity="0.5">
<path d="M39.178 41.9953C32.1853 42.0355 25.2125 41.3723 18.2662 40.5482C15.8733 40.2668 13.4404 39.9586 11.0674 40.3874C9.91744 40.5951 8.73425 41.0105 7.96984 41.9015C7.17218 42.8261 6.93953 44.1392 7.09906 45.3519C7.26524 46.5645 7.78372 47.6968 8.36202 48.7754C10.7084 53.1637 14.1583 57.083 18.6185 59.247C22.1348 60.9554 26.0899 61.4981 29.9917 61.6991C33.3685 61.8666 36.8183 61.7795 40.0422 60.7611C44.0171 59.5016 47.4338 56.882 50.4848 54.0146C53.5358 51.1471 56.301 47.9782 59.4983 45.2782C60.3757 44.5412 61.2996 43.8177 61.8912 42.8328C62.3499 42.0824 63.0345 39.4495 61.4991 39.4495C60.6682 39.4495 59.711 39.8246 58.8934 39.9921C58.0093 40.1663 57.1186 40.3338 56.2279 40.4879C52.5986 41.111 48.9427 41.5465 45.2734 41.7877C43.2461 41.9216 41.2187 41.9886 39.1847 42.002L39.178 41.9953Z" fill="#9CF1FF"/>
</g>
<g style="mix-blend-mode:screen" opacity="0.5">
<path d="M20.207 42.0422C18.1265 41.8077 15.9595 41.5665 13.9787 42.2499C13.4668 42.4308 12.9018 42.7658 12.862 43.3085C12.8221 43.8712 13.3605 44.2933 13.8457 44.5747C17.7077 46.8325 22.1546 47.958 26.6082 48.2461C31.0618 48.5342 35.5419 48.0049 39.9157 47.1139C42.2489 46.6382 44.6019 46.0419 46.6958 44.8762C47.2209 44.5814 48.3841 43.9047 47.4336 43.3889C46.6492 42.9668 45.5525 43.1477 44.7149 43.2013C39.4571 43.5296 34.1859 43.3353 28.9413 42.9132C26.0232 42.6787 23.1118 42.3705 20.207 42.0355V42.0422Z" fill="#9CF1FF"/>
</g>
<g style="mix-blend-mode:screen" opacity="0.5">
<path d="M50.7573 42.893C50.4714 43.0136 50.1856 43.161 49.9862 43.4022C49.7868 43.6434 49.6937 43.9984 49.84 44.2731C50.0261 44.6215 50.4847 44.7019 50.8769 44.722C51.4419 44.7488 52.0136 44.7488 52.5852 44.7153C53.549 44.655 54.5129 44.5009 55.4169 44.1659C55.9487 43.9716 57.3446 43.4692 57.4775 42.8126C57.6902 41.7071 54.7389 41.9751 54.1938 42.0421C53.0239 42.1895 51.8474 42.4307 50.7573 42.8997V42.893Z" fill="#9CF1FF"/>
</g>
<path opacity="0.19" d="M33.9999 1.27466C15.3747 1.27466 0.272461 4.6312 0.272461 8.7716C0.272461 8.8453 0.272461 8.91899 0.285755 8.98599L6.5141 103.947L6.87305 109.34C6.87305 109.34 7.21205 112.69 8.80736 113.722C8.90706 113.796 9.02007 113.849 9.13307 113.896C10.1368 114.305 23.6105 115.92 34.0066 115.712C44.4027 115.92 57.883 114.305 58.8801 113.896C59.1526 113.789 59.3919 113.615 59.6046 113.394C60.8609 112.114 61.1467 109.334 61.1467 109.334L61.4725 104.363L67.7141 8.98599C67.7274 8.91229 67.7274 8.8386 67.7274 8.7716C67.734 4.6312 52.6318 1.27466 33.9999 1.27466Z" fill="#9CCAFF"/>
<path opacity="0.33" d="M67.6742 9.67608L61.539 103.237L61.4658 104.369L61.1401 109.341C61.1401 109.341 61.1401 109.354 61.1401 109.374C61.1401 109.387 61.1401 109.401 61.1401 109.414C61.1401 109.434 61.1401 109.448 61.1401 109.475C61.1401 109.495 61.1401 109.521 61.1268 109.555C61.1268 109.575 61.1268 109.602 61.1135 109.629C61.1135 109.669 61.1002 109.702 61.0936 109.749C61.0936 109.776 61.0803 109.809 61.0803 109.843C61.0803 109.89 61.067 109.943 61.0537 109.997C61.0537 110.031 61.0404 110.064 61.0404 110.098C61.0271 110.158 61.0205 110.211 61.0005 110.278C61.0005 110.299 60.9872 110.325 60.9872 110.352C60.9607 110.486 60.9208 110.627 60.8875 110.774C60.8875 110.814 60.8742 110.855 60.8609 110.895C60.8477 110.962 60.8211 111.022 60.8011 111.096C60.8011 111.116 60.7878 111.143 60.7812 111.17C60.7812 111.196 60.7679 111.223 60.7612 111.25C60.7413 111.317 60.7214 111.377 60.6948 111.451C60.6748 111.505 60.6549 111.558 60.6349 111.618C60.615 111.685 60.5884 111.746 60.5618 111.806C60.5352 111.866 60.5153 111.927 60.4887 111.994C60.4688 112.054 60.4422 112.114 60.4156 112.174L60.3159 112.369C60.2893 112.422 60.2694 112.469 60.2428 112.53C60.1829 112.643 60.1165 112.751 60.05 112.858C60.0367 112.878 60.0234 112.898 60.0101 112.918C59.9503 113.005 59.8838 113.092 59.824 113.166C59.7974 113.2 59.7708 113.233 59.7442 113.26C59.6977 113.307 59.6645 113.36 59.6179 113.401V113.387C59.4052 113.602 59.1726 113.789 58.8934 113.896C57.8963 114.305 44.416 115.92 34.0199 115.712C23.6238 115.92 10.1501 114.305 9.14638 113.896C8.83397 113.769 8.56144 113.548 8.32879 113.28C8.31549 113.267 8.28891 113.24 8.27561 113.226C8.21579 113.153 8.16261 113.072 8.10279 112.999C8.08284 112.965 8.0629 112.938 8.04296 112.911C7.98979 112.838 7.94326 112.751 7.89008 112.67C7.87678 112.63 7.8502 112.597 7.83025 112.57C7.79037 112.489 7.74384 112.402 7.70396 112.322C7.69067 112.282 7.67072 112.248 7.65078 112.208C7.6109 112.121 7.57766 112.034 7.54443 111.947C7.53113 111.906 7.51119 111.873 7.4979 111.833L7.39819 111.571C7.3849 111.531 7.3716 111.491 7.35831 111.451C7.32507 111.364 7.29849 111.277 7.27854 111.196C7.26525 111.156 7.25196 111.116 7.23866 111.076C7.22537 111.036 7.21872 110.995 7.20543 110.955C7.19213 110.908 7.17884 110.861 7.17219 110.828C7.1589 110.794 7.15225 110.754 7.13895 110.721C7.12566 110.64 7.09907 110.56 7.08578 110.486C7.08578 110.453 7.07248 110.419 7.06584 110.386C7.05254 110.312 7.0326 110.238 7.02595 110.171C7.01266 110.138 7.01266 110.111 7.00601 110.084C6.99272 110.017 6.98607 109.957 6.97278 109.897C6.97278 109.87 6.95948 109.85 6.95948 109.823C6.94619 109.769 6.93954 109.716 6.93289 109.669C6.93289 109.642 6.93289 109.629 6.9196 109.602C6.9196 109.562 6.90631 109.521 6.90631 109.488C6.90631 109.468 6.90631 109.454 6.90631 109.434C6.90631 109.421 6.90631 109.394 6.90631 109.381C6.90631 109.354 6.90631 109.341 6.90631 109.341L6.54736 103.947L6.48089 102.949L0.299072 9.2406C0.398779 9.55549 0.545016 9.85697 0.744429 10.125C0.76437 10.1451 0.784312 10.1719 0.8109 10.1987L0.824194 10.2121C0.997019 10.3996 1.17649 10.5738 1.34932 10.7614C1.34932 10.7614 1.34932 10.7614 1.36261 10.7748C1.36261 10.7748 1.3759 10.7748 1.3759 10.7882C1.3892 10.7882 1.46896 10.8418 1.56867 10.9088L7.87678 100.517C8.0629 103.157 9.7978 105.428 12.2838 106.279C20.8054 109.173 37.1906 112.724 56.0019 106.446C58.5212 105.609 60.2959 103.331 60.4887 100.664L66.8434 10.3259C67.0893 10.1853 67.3286 10.0245 67.528 9.81007C67.5745 9.76987 67.6277 9.72298 67.6742 9.68278V9.67608Z" fill="#A7C0FF"/>
<path opacity="0.33" d="M29.8654 112.764C28.9681 113.36 27.8447 113.441 26.7745 113.488C22.4805 113.662 18.1732 113.521 13.8991 113.072C11.9581 112.865 9.97061 112.583 8.24901 111.652C7.87677 111.451 7.52448 111.216 7.18547 110.962C7.17218 110.915 7.15888 110.868 7.15224 110.835C7.13894 110.801 7.1323 110.761 7.119 110.727C7.10571 110.647 7.07912 110.567 7.06582 110.493C7.06582 110.459 7.05253 110.426 7.04588 110.392C7.03259 110.319 7.01265 110.245 7.006 110.178C6.99271 110.144 6.99271 110.118 6.98606 110.091C6.97277 110.024 6.96612 109.964 6.95282 109.903C6.95282 109.876 6.93953 109.856 6.93953 109.83C6.92624 109.776 6.91959 109.722 6.91294 109.675C6.91294 109.649 6.91294 109.635 6.89965 109.608C6.89965 109.568 6.88635 109.528 6.88635 109.495C6.88635 109.474 6.88635 109.461 6.88635 109.441C6.88635 109.428 6.88635 109.401 6.88635 109.387C6.88635 109.361 6.88635 109.347 6.88635 109.347L6.52741 103.954L6.46094 102.956C6.69359 103.23 6.93288 103.492 7.19212 103.746C9.49202 106.051 12.4566 107.612 15.5077 108.657C19.8682 110.158 24.4879 110.734 28.9548 111.88C29.4134 112 29.9784 112.302 29.8721 112.764H29.8654Z" fill="#A7FFFF"/>
<path opacity="0.33" d="M61.5389 103.237L61.4658 104.369L61.1401 109.34C61.1401 109.34 61.1401 109.354 61.1401 109.374C61.1401 109.387 61.1401 109.401 61.1401 109.414C61.1401 109.434 61.1401 109.448 61.1401 109.474C61.1401 109.495 61.1401 109.521 61.1268 109.555C61.1268 109.575 61.1268 109.602 61.1135 109.629C61.1135 109.669 61.1002 109.702 61.0935 109.749C61.0935 109.776 61.0802 109.809 61.0802 109.843C61.0802 109.89 61.0669 109.943 61.0536 109.997C61.0536 110.031 61.0403 110.064 61.0403 110.098C61.0271 110.158 61.0204 110.211 61.0005 110.278C61.0005 110.299 60.9872 110.325 60.9872 110.352C60.9606 110.486 60.9207 110.627 60.8875 110.774C60.8875 110.814 60.8742 110.855 60.8609 110.895C60.8476 110.962 60.821 111.022 60.8011 111.096C60.8011 111.116 60.7878 111.143 60.7811 111.169C60.5352 111.344 60.2826 111.504 60.0167 111.645C58.2951 112.583 56.3076 112.864 54.3666 113.065C50.0925 113.508 45.7852 113.655 41.4845 113.481C40.4143 113.441 39.291 113.354 38.3936 112.757C38.2806 112.295 38.8523 111.994 39.3109 111.873C43.7778 110.727 48.3975 110.151 52.758 108.65C55.8024 107.599 58.767 106.044 61.0736 103.74C61.2331 103.579 61.3993 103.411 61.5522 103.237H61.5389Z" fill="#A7FFFF"/>
<path d="M67.734 8.7716C67.734 8.8453 67.734 8.91899 67.7207 8.98599C67.2089 13.0259 52.3127 16.2752 34.0066 16.2752C15.7004 16.2752 0.797583 13.0326 0.285755 8.98599C0.272461 8.91229 0.272461 8.8386 0.272461 8.7716C0.272461 4.6312 15.3747 1.27466 33.9999 1.27466C52.6251 1.27466 67.7274 4.6312 67.7274 8.7716H67.734Z" stroke="#E4FBD8" stroke-width="0.81" stroke-miterlimit="10"/>
<path d="M33.9999 1.27466C15.3747 1.27466 0.272461 4.6312 0.272461 8.7716C0.272461 8.8453 0.272461 8.91899 0.285755 8.98599L6.5141 103.947L6.87305 109.341C6.87305 109.341 7.21205 112.69 8.80736 113.722C8.90706 113.796 9.02007 113.849 9.13307 113.896C10.1368 114.305 23.6105 115.92 34.0066 115.712C44.4027 115.92 57.883 114.305 58.8801 113.896C59.1526 113.789 59.3919 113.615 59.6046 113.394C60.8609 112.114 61.1467 109.334 61.1467 109.334L61.4725 104.363L67.7141 8.98599C67.7274 8.91229 67.7274 8.8386 67.7274 8.7716C67.734 4.6312 52.6318 1.27466 33.9999 1.27466Z" stroke="#E4FBD8" stroke-width="0.81" stroke-miterlimit="10"/>
<path opacity="0.19" d="M64.4902 11.9807L59.4318 103.8C58.6341 105.019 57.4376 105.964 56.0019 106.439C53.5092 107.27 51.0498 107.934 48.6501 108.443L52.9375 14.9755C62.6689 14.6606 64.4902 11.974 64.4902 11.974V11.9807Z" fill="#9CCAFF"/>
<path opacity="0.19" d="M19.2832 108.228C17.442 107.813 15.7669 107.364 14.2713 106.908C13.5733 106.694 12.9086 106.486 12.2904 106.272C12.0179 106.178 11.7653 106.071 11.5127 105.944L4.73267 12.5033L8.24899 13.3676L14.3577 14.875L19.2832 108.235V108.228Z" fill="#9CCAFF"/>
<path opacity="0.19" d="M14.2713 106.908C13.5733 106.694 12.9086 106.486 12.2904 106.272C12.0179 106.178 11.7653 106.071 11.5127 105.944L4.73267 12.5033L8.24899 13.3676C8.5747 16.8983 12.8156 83.3591 14.2713 106.908Z" fill="#9CCAFF"/>
</g>
<defs>
<clipPath id="clip0_91_1046">
<rect width="68" height="116" fill="white"/>
</clipPath>
</defs>
</svg>
