<svg width="18" height="18" viewBox="0 0 18 18" fill="none" xmlns="http://www.w3.org/2000/svg">
<mask id="mask0_180_3533" style="mask-type:alpha" maskUnits="userSpaceOnUse" x="0" y="0" width="18" height="18">
<rect x="0.359863" y="0.271973" width="17.368" height="17.368" fill="#D9D9D9"/>
</mask>
<g mask="url(#mask0_180_3533)">
<path d="M3.9781 15.4691C3.58008 15.4691 3.23935 15.3273 2.95592 15.0439C2.67248 14.7605 2.53076 14.4197 2.53076 14.0217V3.89039C2.53076 3.49238 2.67248 3.15165 2.95592 2.86822C3.23935 2.58478 3.58008 2.44306 3.9781 2.44306H7.0175C7.18635 2.00886 7.45169 1.65909 7.81353 1.39374C8.17536 1.1284 8.58544 0.995728 9.04376 0.995728C9.50208 0.995728 9.91216 1.1284 10.274 1.39374C10.6358 1.65909 10.9012 2.00886 11.07 2.44306H14.1094C14.5074 2.44306 14.8482 2.58478 15.1316 2.86822C15.415 3.15165 15.5568 3.49238 15.5568 3.89039V14.0217C15.5568 14.4197 15.415 14.7605 15.1316 15.0439C14.8482 15.3273 14.5074 15.4691 14.1094 15.4691H3.9781ZM9.04376 3.34764C9.20056 3.34764 9.33021 3.29638 9.43273 3.19387C9.53525 3.09135 9.58651 2.96169 9.58651 2.80489C9.58651 2.6481 9.53525 2.51844 9.43273 2.41592C9.33021 2.3134 9.20056 2.26214 9.04376 2.26214C8.88697 2.26214 8.75731 2.3134 8.65479 2.41592C8.55227 2.51844 8.50101 2.6481 8.50101 2.80489C8.50101 2.96169 8.55227 3.09135 8.65479 3.19387C8.75731 3.29638 8.88697 3.34764 9.04376 3.34764ZM3.9781 13.1895C4.6294 12.5503 5.38623 12.0467 6.2486 11.6789C7.11097 11.311 8.04269 11.1271 9.04376 11.1271C10.0448 11.1271 10.9766 11.311 11.8389 11.6789C12.7013 12.0467 13.4581 12.5503 14.1094 13.1895V3.89039H3.9781V13.1895ZM9.04376 9.67973C9.74331 9.67973 10.3403 9.43248 10.8348 8.93797C11.3293 8.44346 11.5766 7.84644 11.5766 7.14689C11.5766 6.44735 11.3293 5.85032 10.8348 5.35582C10.3403 4.86131 9.74331 4.61406 9.04376 4.61406C8.34422 4.61406 7.74719 4.86131 7.25269 5.35582C6.75818 5.85032 6.51093 6.44735 6.51093 7.14689C6.51093 7.84644 6.75818 8.44346 7.25269 8.93797C7.74719 9.43248 8.34422 9.67973 9.04376 9.67973ZM5.42543 14.0217H12.6621V13.8408C12.1555 13.4187 11.5947 13.1021 10.9796 12.891C10.3645 12.6799 9.71918 12.5744 9.04376 12.5744C8.36834 12.5744 7.72307 12.6799 7.10795 12.891C6.49284 13.1021 5.932 13.4187 5.42543 13.8408V14.0217ZM9.04376 8.23239C8.74223 8.23239 8.48594 8.12686 8.27487 7.91579C8.0638 7.70472 7.95826 7.44842 7.95826 7.14689C7.95826 6.84537 8.0638 6.58907 8.27487 6.378C8.48594 6.16693 8.74223 6.06139 9.04376 6.06139C9.34529 6.06139 9.60159 6.16693 9.81266 6.378C10.0237 6.58907 10.1293 6.84537 10.1293 7.14689C10.1293 7.44842 10.0237 7.70472 9.81266 7.91579C9.60159 8.12686 9.34529 8.23239 9.04376 8.23239Z" fill="#454545"/>
</g>
</svg>
