<svg width="18" height="18" viewBox="0 0 18 18" fill="none" xmlns="http://www.w3.org/2000/svg">
<path d="M16.7629 5.54864C16.7644 5.35888 16.7127 5.17248 16.6138 5.01051C16.5149 4.84854 16.3727 4.71744 16.2033 4.632C16.0427 4.54574 15.8609 4.50676 15.679 4.51957C15.4972 4.53238 15.3226 4.59645 15.1757 4.70437L12.9034 6.15652V4.41972C12.9034 4.16382 12.8017 3.9184 12.6208 3.73744C12.4398 3.55649 12.1944 3.45483 11.9385 3.45483H3.25448C2.74268 3.45483 2.25183 3.65815 1.88993 4.02005C1.52802 4.38196 1.32471 4.8728 1.32471 5.38461V13.1037C1.32471 13.6155 1.52802 14.1064 1.88993 14.4683C2.25183 14.8302 2.74268 15.0335 3.25448 15.0335H11.9385C12.1944 15.0335 12.4398 14.9318 12.6208 14.7509C12.8017 14.5699 12.9034 14.3245 12.9034 14.0686V12.3318L15.1419 13.7791C15.2917 13.8938 15.4708 13.9637 15.6587 13.9808C15.8465 13.9979 16.0353 13.9614 16.2033 13.8756C16.3757 13.7888 16.5199 13.6546 16.619 13.4889C16.7181 13.3232 16.768 13.1327 16.7629 12.9397V5.54864ZM15.7643 12.9928C15.7353 12.9928 15.7112 12.9928 15.6726 12.9638L11.9385 10.5805V14.0686H3.25448C2.99858 14.0686 2.75316 13.967 2.57221 13.786C2.39125 13.6051 2.2896 13.3596 2.2896 13.1037V5.38461C2.2896 5.12871 2.39125 4.88328 2.57221 4.70233C2.75316 4.52138 2.99858 4.41972 3.25448 4.41972H11.9385V7.9078L15.7015 5.49557C15.7106 5.48891 15.7216 5.48532 15.7329 5.48532C15.7442 5.48532 15.7552 5.48891 15.7643 5.49557C15.7748 5.49966 15.7838 5.50702 15.7899 5.51657C15.7959 5.52611 15.7988 5.53735 15.798 5.54864V12.9397C15.7988 12.951 15.7959 12.9622 15.7899 12.9718C15.7838 12.9813 15.7748 12.9887 15.7643 12.9928Z" fill="black"/>
</svg>
